<?xml version="1.0" encoding="UTF-8"?><svg id="Layer_2" xmlns="http://www.w3.org/2000/svg" viewBox="0 0 24 24"><defs><style>.cls-1,.cls-2{fill:#9b4f07;}.cls-3,.cls-2,.cls-4{stroke:#9b4f07;stroke-miterlimit:10;}.cls-3,.cls-4{fill:none;}.cls-5{fill:#fff;}.cls-4{stroke-linecap:round;stroke-width:1.5px;}</style></defs><g id="Layer_1-2"><rect class="cls-5" x="0" y="0" width="24" height="24"/><circle class="cls-1" cx="19.41" cy="6.93" r="1.77"/><path class="cls-4" d="M.96,14.33l7.56-4.93c.21-.13.47-.13.68,0l7.22,4.71c.21.13.47.13.68,0l2.46-1.6c.21-.13.47-.13.68,0l2.8,1.83"/><path class="cls-3" d="M10.01,14.76l-1.66,3.95c-.02.06-.09.1-.16.12h0c-.15.03-.26-.08-.22-.19l1.66-3.95c.02-.06.09-.1.16-.12h0c.15-.03.26.08.22.19Z"/><path class="cls-2" d="M5.2,14.79l-3.28,1.64c-.22.11-.22.42,0,.53l3.28,1.64c.2.1.43-.04.43-.27h0c0-.11-.06-.22-.16-.27l-2.22-1.11c-.22-.11-.22-.42,0-.53l2.22-1.11c.1-.05.16-.15.16-.27h0c0-.22-.23-.36-.43-.27Z"/><path class="cls-2" d="M12.77,14.79l3.28,1.64c.22.11.22.42,0,.53l-3.28,1.64c-.2.1-.43-.04-.43-.27h0c0-.11.06-.22.16-.27l2.22-1.11c.22-.11.22-.42,0-.53l-2.22-1.11c-.1-.05-.16-.15-.16-.27h0c0-.22.23-.36.43-.27Z"/></g></svg>