<?xml version="1.0" encoding="UTF-8"?><svg id="Layer_2" xmlns="http://www.w3.org/2000/svg" viewBox="0 0 34.82 47.04"><defs><style>.cls-1{fill:#fff;}.cls-2{fill:#07549b;}</style></defs><g id="Layer_1-2"><rect class="cls-2" x="0" width="34.82" height="47.04"/><path class="cls-1" d="M29.83,2.43h-12.42c1.66,0,3.23.3,4.68.88h-4.68c3.49,0,6.61,1.33,8.97,3.85l3.45-3.22v-.63h-.27l.27-.25v-.63Z"/><path class="cls-1" d="M26.38,8.61c-2.49-2.57-5.48-3.85-8.97-3.85s-6.29,1.21-8.74,3.62c-2.45,2.42-3.68,5.35-3.68,8.8s1.23,6.29,3.68,8.74c2.45,2.45,5.37,3.68,8.74,3.68,3.68,0,6.77-1.38,9.26-4.14v6.5c0,2.76-.93,5.03-2.79,6.81-1.86,1.78-4.09,2.67-6.7,2.67-2.96,0-5.32-1.04-7.11-3.09.03.12.04.25.04.38,0,1.02-.83,1.85-1.85,1.85-.14,0-.27-.02-.4-.05,2.46,2.71,5.57,4.07,9.32,4.07,3.45,0,6.42-1.23,8.91-3.68,2.49-2.45,3.74-5.45,3.74-8.97V5.39l-3.45,3.22ZM23.97,23.74c-1.8,1.8-3.99,2.7-6.56,2.7s-4.8-.89-6.59-2.67c-1.78-1.78-2.67-3.98-2.67-6.59s.89-4.8,2.67-6.58c1.78-1.78,3.98-2.67,6.59-2.67s4.75.9,6.56,2.7c1.8,1.8,2.7,3.99,2.7,6.56s-.9,4.75-2.7,6.56Z"/><circle class="cls-1" cx="7.02" cy="37.42" r="1.85"/></g></svg>