<?xml version="1.0" encoding="UTF-8"?><svg id="Layer_2" xmlns="http://www.w3.org/2000/svg" viewBox="0 0 21.39 22.36"><defs><style>.cls-1{fill:#9b4f07;}</style></defs><g id="Layer_1-2"><path class="cls-1" d="M.33,10.57C.03,4.93,5.02-.1,10.65,0c5.63-.1,10.62,4.92,10.32,10.57-.09-5.45-4.87-10.19-10.32-10.07C5.2.38.42,5.12.33,10.57H.33Z"/><path class="cls-1" d="M3.77,10.7c-.09-1.8.62-3.64,1.92-4.96,1.28-1.33,3.13-2.09,4.98-2.09,1.86.01,3.7.78,4.97,2.12,1.28,1.32,1.99,3.17,1.89,4.97h0c-.11-1.79-.89-3.5-2.16-4.7-1.26-1.21-2.97-1.92-4.7-1.89-1.73-.03-3.45.67-4.71,1.87-1.27,1.19-2.06,2.9-2.18,4.68h0Z"/><path class="cls-1" d="M3.85,10.71s-.04.07-.08.07c-.04,0-.07-.04-.07-.08,0-.04.04-.07.08-.07.04,0,.07.04.07.08Z"/><polygon class="cls-1" points="17.46 10.67 17.52 10.72 17.57 10.66 17.58 10.71 17.53 10.77 17.46 10.72 17.46 10.67"/><path class="cls-1" d="M7.19,10.83c-.06-.89.29-1.82.95-2.49.65-.68,1.59-1.06,2.54-1.05.95,0,1.89.41,2.52,1.1.64.68.98,1.61.9,2.5h-.02c-.12-.87-.53-1.67-1.15-2.23-.62-.55-1.43-.88-2.25-.88-.82-.01-1.63.29-2.26.84-.63.54-1.06,1.34-1.19,2.21h-.03Z"/><path class="cls-1" d="M7.37,10.84c0,.08-.08.14-.16.13s-.14-.08-.13-.16.08-.14.16-.13c.08,0,.14.08.13.16Z"/><polygon class="cls-1" points="13.95 10.78 14.08 10.88 14.18 10.75 14.19 10.85 14.09 10.98 13.96 10.87 13.95 10.78"/><path class="cls-1" d="M14.11,11.68c.02.88-.37,1.77-1.02,2.41-.65.64-1.58,1-2.51.99-.93-.01-1.84-.41-2.46-1.08-.63-.66-.98-1.57-.92-2.45h.03c.13.85.54,1.63,1.16,2.17.61.54,1.4.86,2.2.86.8.02,1.6-.27,2.23-.78.63-.51,1.07-1.28,1.23-2.12h.06Z"/><path class="cls-1" d="M13.76,11.66c.02-.17.16-.29.33-.27.17.02.29.16.27.33-.02.17-.16.29-.33.27-.17-.02-.29-.16-.27-.33Z"/><polygon class="cls-1" points="7.48 11.79 7.23 11.58 7.02 11.84 7 11.64 7.21 11.39 7.46 11.6 7.48 11.79"/><path class="cls-1" d="M17.54,11.95c0,1.77-.75,3.54-2.05,4.8-1.29,1.27-3.11,1.98-4.92,1.97-1.82-.02-3.62-.78-4.87-2.08-1.27-1.29-1.98-3.08-1.93-4.84h.02c.14,1.75.93,3.4,2.18,4.57,1.24,1.17,2.91,1.87,4.61,1.86,1.7.04,3.39-.61,4.65-1.75,1.28-1.13,2.1-2.77,2.28-4.51h.04Z"/><path class="cls-1" d="M17.11,11.93c.02-.21.21-.36.41-.34.21.02.36.21.34.41s-.21.36-.41.34c-.21-.02-.36-.21-.34-.41Z"/><polygon class="cls-1" points="4.11 12.1 3.79 11.84 3.53 12.16 3.51 11.91 3.77 11.59 4.09 11.85 4.11 12.1"/><path class="cls-1" d="M20.97,12.23c0,2.66-1.13,5.32-3.08,7.19-1.93,1.89-4.63,2.96-7.34,2.94-2.71-.02-5.4-1.15-7.28-3.08-.94-.96-1.7-2.1-2.21-3.34-.5-1.24-.74-2.58-.73-3.9h.01c.14,2.64,1.32,5.18,3.2,6.97,1.87,1.81,4.42,2.87,7.01,2.86,2.59.05,5.16-.96,7.07-2.73,1.92-1.75,3.13-4.27,3.33-6.91h.03Z"/><path class="cls-1" d="M20.49,12.23c.01-.25.22-.44.47-.43s.44.22.43.47-.22.44-.47.43c-.25-.01-.44-.22-.43-.47Z"/><polygon class="cls-1" points=".71 12.42 .34 12.09 .01 12.46 0 12.16 .33 11.8 .69 12.13 .71 12.42"/></g></svg>