<?xml version="1.0" encoding="UTF-8"?><svg id="Layer_2" xmlns="http://www.w3.org/2000/svg" viewBox="0 0 22.36 21.39"><defs><style>.cls-1{fill:#9b4f07;}</style></defs><g id="Layer_1-2"><path class="cls-1" d="M10.57,21.06C4.93,21.36-.1,16.38,0,10.75-.1,5.11,4.93.12,10.57.43,5.12.52.38,5.3.5,10.75c-.12,5.44,4.62,10.23,10.07,10.32h0Z"/><path class="cls-1" d="M10.7,17.63c-1.8.09-3.64-.62-4.96-1.92-1.33-1.28-2.09-3.13-2.09-4.98.01-1.86.78-3.7,2.12-4.97,1.32-1.28,3.17-1.99,4.97-1.89h0c-1.79.11-3.5.89-4.7,2.16-1.21,1.26-1.92,2.97-1.89,4.7-.03,1.73.67,3.45,1.87,4.71,1.19,1.27,2.9,2.06,4.68,2.18h0Z"/><path class="cls-1" d="M10.71,17.54s.07.04.07.08c0,.04-.04.07-.08.07-.04,0-.07-.04-.07-.08,0-.04.04-.07.08-.07Z"/><polygon class="cls-1" points="10.67 3.94 10.72 3.87 10.66 3.82 10.71 3.82 10.77 3.87 10.72 3.93 10.67 3.94"/><path class="cls-1" d="M10.84,14.2c-.89.06-1.82-.29-2.49-.95-.68-.65-1.06-1.59-1.05-2.54,0-.95.41-1.89,1.1-2.52.68-.64,1.61-.98,2.5-.9v.02c-.87.12-1.67.53-2.23,1.15-.55.62-.88,1.43-.88,2.25-.01.82.29,1.63.84,2.26.54.63,1.34,1.06,2.21,1.19v.03Z"/><path class="cls-1" d="M10.84,14.02c.08,0,.14.08.13.16s-.08.14-.16.13c-.08,0-.14-.08-.13-.16s.08-.14.16-.13Z"/><polygon class="cls-1" points="10.78 7.44 10.88 7.32 10.75 7.21 10.85 7.2 10.98 7.31 10.87 7.43 10.78 7.44"/><path class="cls-1" d="M11.68,7.29c.88-.02,1.77.37,2.41,1.02.64.65,1,1.58.99,2.51-.01.93-.41,1.84-1.08,2.46-.66.63-1.57.98-2.45.92v-.03c.85-.13,1.63-.54,2.17-1.16.54-.61.86-1.4.86-2.2.02-.8-.27-1.6-.78-2.23-.51-.63-1.28-1.07-2.12-1.23v-.06Z"/><path class="cls-1" d="M11.66,7.64c-.17-.02-.29-.16-.27-.33.02-.17.16-.29.33-.27.17.02.29.16.27.33-.02.17-.16.29-.33.27Z"/><polygon class="cls-1" points="11.79 13.91 11.58 14.17 11.84 14.37 11.64 14.39 11.39 14.19 11.6 13.93 11.79 13.91"/><path class="cls-1" d="M11.95,3.86c1.77,0,3.54.75,4.8,2.05,1.27,1.29,1.98,3.11,1.97,4.92-.02,1.82-.78,3.62-2.08,4.87-1.29,1.27-3.08,1.98-4.84,1.93v-.02c1.75-.14,3.4-.93,4.57-2.18,1.17-1.24,1.87-2.91,1.86-4.61.04-1.7-.61-3.39-1.75-4.65-1.13-1.28-2.77-2.1-4.51-2.28v-.04Z"/><path class="cls-1" d="M11.93,4.28c-.21-.02-.36-.21-.34-.41.02-.21.21-.36.41-.34.21.02.36.21.34.41-.02.21-.21.36-.41.34Z"/><polygon class="cls-1" points="12.1 17.28 11.84 17.6 12.16 17.86 11.91 17.88 11.59 17.62 11.85 17.31 12.1 17.28"/><path class="cls-1" d="M12.23.42c2.66,0,5.32,1.13,7.19,3.08,1.89,1.93,2.96,4.63,2.94,7.34-.02,2.71-1.15,5.4-3.08,7.28-.96.94-2.1,1.7-3.34,2.21-1.24.5-2.58.74-3.9.73h0c2.64-.16,5.18-1.33,6.97-3.21,1.81-1.87,2.87-4.42,2.86-7.02.05-2.59-.96-5.16-2.73-7.06-1.75-1.92-4.27-3.13-6.91-3.33v-.03Z"/><path class="cls-1" d="M12.23.9c-.25-.01-.44-.22-.43-.47.01-.25.22-.44.47-.43.25.01.44.22.43.47-.01.25-.22.44-.47.43Z"/><polygon class="cls-1" points="12.42 20.68 12.09 21.05 12.46 21.38 12.16 21.39 11.8 21.06 12.13 20.7 12.42 20.68"/></g></svg>