<?xml version="1.0" encoding="UTF-8"?>
<svg id="Layer_1" xmlns="http://www.w3.org/2000/svg" version="1.1" viewBox="0 0 100 100">
  <!-- Generator: Adobe Illustrator 29.8.4, SVG Export Plug-In . SVG Version: 2.1.1 Build 6)  -->
  <defs>
    <style>
      .st0 {
        fill: #fff;
      }

      .st1 {
        fill: #f8ab64;
      }

      .st2 {
        fill: #07549b;
      }
    </style>
  </defs>
  <rect class="st2" width="100" height="100"/>
  <path class="st1" d="M52.1,12.2c.1,0,.2,0,.4,0h-.4Z"/>
  <path class="st0" d="M47.8,7.3c.1,0,.3,0,.4,0h-.4Z"/>
  <g>
    <path class="st0" d="M76,2.1h-28.2c3.8,0,7.3.7,10.6,2h-10.6c7.9,0,15,3,20.4,8.7l7.8-7.3v-1.4h-.6l.6-.6v-1.4Z"/>
    <path class="st0" d="M68.2,16.2c-5.7-5.8-12.4-8.7-20.4-8.7s-14.3,2.7-19.8,8.2c-5.6,5.5-8.4,12.1-8.4,20s2.8,14.3,8.4,19.8c5.6,5.6,12.2,8.4,19.8,8.4s15.4-3.1,21-9.4v14.7c0,6.3-2.1,11.4-6.3,15.5-4.2,4-9.3,6.1-15.2,6.1s-12.1-2.4-16.1-7c0,.3,0,.6,0,.9,0,2.3-1.9,4.2-4.2,4.2s-.6,0-.9-.1c5.6,6.1,12.6,9.2,21.2,9.2s14.6-2.8,20.2-8.4c5.7-5.6,8.5-12.4,8.5-20.4V8.9l-7.8,7.3ZM62.7,50.5c-4.1,4.1-9.1,6.1-14.9,6.1s-10.9-2-14.9-6.1c-4-4-6.1-9-6.1-14.9s2-10.9,6.1-14.9c4-4,9-6.1,14.9-6.1s10.8,2,14.9,6.1c4.1,4.1,6.1,9.1,6.1,14.9s-2,10.8-6.1,14.9Z"/>
    <circle class="st0" cx="24.3" cy="81.5" r="4.2"/>
  </g>
</svg>