<?xml version="1.0" encoding="UTF-8"?>
<svg id="Layer_1" xmlns="http://www.w3.org/2000/svg" version="1.1" viewBox="0 0 100 100">
  <!-- Generator: Adobe Illustrator 29.8.4, SVG Export Plug-In . SVG Version: 2.1.1 Build 6)  -->
  <defs>
    <style>
      .st0 {
        fill: #fff;
      }

      .st1 {
        fill: #f8ab64;
      }

      .st2 {
        fill: #07549b;
      }
    </style>
  </defs>
  <rect class="st2" width="100" height="100"/>
  <path class="st1" d="M52.1,12.2h.4-.4Z"/>
  <path class="st0" d="M47.8,7.3h.4-.4Z"/>
  <g>
    <path class="st0" d="M76.8,4.4h-26.8c3.6,0,6.9.7,10.1,1.9h-10.1c7.5,0,14.3,2.9,19.4,8.3l7.4-6.9v-1.3h-.6l.6-.6s0-1.3,0-1.3Z"/>
    <path class="st0" d="M69.4,17.8c-5.4-5.5-11.8-8.3-19.4-8.3s-13.6,2.6-18.8,7.8c-5.3,5.2-8,11.5-8,19s2.7,13.6,8,18.8c5.3,5.3,11.6,8,18.8,8s14.6-2.9,20-8.9v14c0,6-2,10.8-6,14.7-4,3.8-8.8,5.8-14.4,5.8s-11.5-2.3-15.3-6.7v.9c0,2.2-1.8,4-4,4s-.6,0-.9,0c5.3,5.8,12,8.7,20.1,8.7s13.9-2.7,19.2-8c5.4-5.3,8.1-11.8,8.1-19.4V10.9l-7.4,6.9ZM64.2,50.4c-3.9,3.9-8.6,5.8-14.2,5.8s-10.4-1.9-14.2-5.8c-3.8-3.8-5.8-8.6-5.8-14.2s1.9-10.4,5.8-14.2c3.8-3.8,8.6-5.8,14.2-5.8s10.3,1.9,14.2,5.8c3.9,3.9,5.8,8.6,5.8,14.2s-1.9,10.3-5.8,14.2Z"/>
    <circle class="st0" cx="27.7" cy="79.9" r="4"/>
  </g>
</svg>