<?xml version="1.0" encoding="UTF-8"?><svg id="Layer_2" xmlns="http://www.w3.org/2000/svg" viewBox="0 0 28.57 46.27"><defs><style>.cls-1{fill:#fff;}.cls-2{fill:#f8ab64;}.cls-3{fill:#07549b;fill-rule:evenodd;}</style></defs><g id="Dimensions"><path class="cls-3" d="M0,0h28.57v46.27H0V0h0Z"/><path class="cls-2" d="M14.12,5.65c.06,0,.11,0,.16,0h-.16Z"/><path class="cls-1" d="M26.04,3.44h-11.76c1.57,0,3.06.28,4.43.83h-4.43c3.3,0,6.26,1.26,8.49,3.65l3.27-3.05v-.6h-.25l.25-.24v-.6Z"/><path class="cls-1" d="M22.78,9.29c-2.36-2.43-5.19-3.65-8.49-3.65s-5.95,1.14-8.27,3.43c-2.32,2.29-3.48,5.06-3.48,8.33s1.16,5.95,3.48,8.27c2.32,2.32,5.08,3.48,8.27,3.48,3.48,0,6.4-1.31,8.76-3.92v6.15c0,2.61-.88,4.76-2.64,6.45-1.76,1.69-3.87,2.53-6.34,2.53-2.8,0-5.04-.98-6.73-2.92.02.11.04.23.04.36,0,.97-.78,1.75-1.75,1.75-.13,0-.26-.02-.38-.04,2.33,2.56,5.27,3.85,8.82,3.85,3.27,0,6.08-1.16,8.44-3.48,2.36-2.32,3.54-5.15,3.54-8.49V6.24l-3.27,3.05ZM20.49,23.6c-1.71,1.71-3.77,2.56-6.2,2.56s-4.55-.84-6.23-2.53-2.53-3.76-2.53-6.23.84-4.54,2.53-6.23c1.69-1.69,3.76-2.53,6.23-2.53s4.5.85,6.2,2.56c1.7,1.71,2.56,3.77,2.56,6.2s-.85,4.5-2.56,6.2Z"/><circle class="cls-1" cx="4.45" cy="36.55" r="1.75"/></g></svg>