<?xml version="1.0" encoding="UTF-8"?><svg id="Layer_2" xmlns="http://www.w3.org/2000/svg" viewBox="0 0 97.71 106.29"><defs><style>.cls-1{fill:#eef3f7;}.cls-2{fill:#81a4c3;}</style></defs><g id="Layer_1-2"><rect class="cls-1" x="0" width="97.71" height="106.29"/><path class="cls-2" d="M32.2,22.36c-.3-.3-.45-.68-.45-1.16s.15-.86.45-1.16c.3-.3.66-.45,1.1-.45s.8.15,1.1.45.45.68.45,1.16-.15.86-.45,1.16c-.3.3-.66.45-1.1.45s-.8-.15-1.1-.45ZM33.9,31.01v32.09h-1.19V31.01h1.19Z"/><path class="cls-2" d="M38.23,40.46c1.61-2.27,3.58-4.01,5.93-5.2,2.35-1.19,4.87-1.79,7.58-1.79,3.72,0,6.6.95,8.64,2.84,2.04,1.89,3.02,4.38,2.95,7.44h-1.08c.04-2.89-.91-5.16-2.84-6.82-1.93-1.66-4.54-2.49-7.82-2.49-2.35,0-4.59.51-6.74,1.54-2.15,1.03-4.01,2.59-5.58,4.68-1.57,2.09-2.63,4.69-3.17,7.8-.22,1.23-.32,2.36-.32,3.41,0,3.47,1.02,6.1,3.06,7.9,2.04,1.81,4.63,2.71,7.77,2.71s6.2-.84,8.74-2.52c2.54-1.68,4.3-3.94,5.28-6.79h1.08c-1.05,3.07-2.92,5.55-5.63,7.44-2.71,1.9-5.92,2.84-9.64,2.84s-6.43-1.02-8.55-3.06c-2.13-2.04-3.19-4.86-3.19-8.47,0-1.08.11-2.24.32-3.47.54-3.07,1.61-5.74,3.22-8.01Z"/><path class="cls-2" d="M34.81,85.42c-1.51-.85-2.71-2.06-3.58-3.63-.87-1.58-1.31-3.44-1.31-5.58s.44-4.01,1.31-5.58c.87-1.58,2.06-2.79,3.58-3.63,1.51-.85,3.22-1.27,5.11-1.27s3.6.42,5.11,1.27c1.51.85,2.7,2.06,3.56,3.63.86,1.58,1.29,3.44,1.29,5.58s-.43,4.01-1.29,5.58c-.86,1.58-2.04,2.79-3.56,3.63-1.51.85-3.22,1.27-5.11,1.27s-3.6-.42-5.11-1.27ZM44.47,84.93c1.39-.72,2.51-1.81,3.37-3.27.86-1.46,1.29-3.28,1.29-5.45s-.43-3.99-1.29-5.45c-.86-1.46-1.98-2.56-3.37-3.27-1.39-.72-2.9-1.08-4.54-1.08s-3.16.36-4.56,1.08-2.53,1.82-3.39,3.29c-.86,1.48-1.29,3.29-1.29,5.43s.43,3.96,1.29,5.43c.86,1.48,1.99,2.57,3.39,3.29,1.4.72,2.92,1.08,4.56,1.08s3.15-.36,4.54-1.08Z"/><path class="cls-2" d="M65.48,67.76c1.54,1.49,2.31,3.74,2.31,6.74v11.92h-.72v-12c0-2.68-.67-4.71-2.01-6.11-1.34-1.4-3.17-2.1-5.49-2.1s-4.37.79-5.83,2.37c-1.46,1.58-2.2,3.91-2.2,6.98v10.86h-.76v-20.44h.76v5.38c.48-1.89,1.44-3.34,2.88-4.33,1.44-1,3.15-1.5,5.15-1.5,2.4,0,4.37.74,5.91,2.23Z"/></g></svg>