<?xml version="1.0" encoding="UTF-8"?><svg id="Layer_2" xmlns="http://www.w3.org/2000/svg" viewBox="0 0 276.93 81.62"><defs><style>.cls-1{fill:#f8ab64;}.cls-2{stroke:#07549b;stroke-miterlimit:10;stroke-width:.25px;}.cls-2,.cls-3{fill-rule:evenodd;}.cls-2,.cls-3,.cls-4{fill:#07549b;}</style></defs><g id="nale-ly"><path class="cls-3" d="M15.32,35.82h17.18v-18.63c0-1.66-.41-3.14-1.24-4.41-.83-1.29-1.88-2.28-3.2-2.97-1.32-.69-2.7-1.04-4.16-1.04-2.53,0-4.6.85-6.2,2.56-1.59,1.7-2.39,3.66-2.39,5.87v18.63h0ZM15.32,39.61v13.25h-3.88v-13.25h-5l2.32-3.79h2.68v-18.63c0-2.16.57-4.18,1.69-6.08,1.13-1.89,2.65-3.39,4.57-4.49,1.93-1.1,3.99-1.65,6.2-1.65s4.27.55,6.2,1.65c1.92,1.1,3.45,2.6,4.57,4.49,1.13,1.89,1.69,3.91,1.69,6.08v35.68h-3.87v-13.25H15.32Z"/><path class="cls-3" d="M63.86,24.07v28.8l-3.3-2.68c-2.21,2.3-4.93,3.45-8.17,3.45s-5.97-1.09-8.17-3.3c-2.21-2.21-3.31-4.94-3.31-8.17v-18.1h3.88v18.1c0,2.11.76,3.91,2.29,5.39,1.53,1.48,3.3,2.22,5.32,2.22,2.21,0,4.03-.76,5.45-2.29,1.44-1.53,2.15-3.3,2.15-5.32v-18.1h3.87Z"/><path class="cls-3" d="M132.85,24.07v28.8l-3.3-2.68c-2.21,2.3-4.93,3.45-8.17,3.45s-5.97-1.09-8.17-3.3c-2.21-2.21-3.31-4.94-3.31-8.17v-18.1h3.88v18.1c0,2.11.76,3.91,2.29,5.39,1.53,1.48,3.3,2.22,5.32,2.22,2.21,0,4.03-.76,5.45-2.29,1.44-1.53,2.15-3.3,2.15-5.32v-18.1h3.87Z"/><path class="cls-3" d="M204.13,49c-3.04,3.14-6.71,4.72-10.98,4.72s-7.71-1.51-10.7-4.5c-3-3.01-4.5-6.58-4.5-10.7s1.51-7.82,4.5-10.78c3-2.96,6.57-4.44,10.7-4.44s7.94,1.57,10.98,4.73l4.23-3.95v28.8l-4.23-3.87h0ZM193.15,27.17c-3.19,0-5.88,1.09-8.06,3.27-2.19,2.19-3.28,4.87-3.28,8.07s1.09,5.88,3.28,8.06c2.19,2.19,4.87,3.27,8.06,3.27s5.82-1.1,8.03-3.3c2.21-2.21,3.31-4.88,3.31-8.03s-1.1-5.83-3.31-8.03c-2.21-2.21-4.88-3.31-8.03-3.31Z"/><path class="cls-3" d="M229.39,27.1c-3.14,0-5.82,1.1-8.03,3.31-2.2,2.2-3.3,4.87-3.3,8.03s1.1,5.82,3.3,8.03c2.21,2.2,4.88,3.3,8.03,3.3s5.89-1.08,8.07-3.27c2.17-2.19,3.27-4.87,3.27-8.06s-1.09-5.89-3.27-8.07c-2.19-2.17-4.87-3.27-8.07-3.27h0ZM218.06,10.41v17.95c3.04-3.38,6.82-5.07,11.33-5.07,4.23,0,7.82,1.48,10.78,4.44,2.96,2.97,4.44,6.56,4.44,10.78s-1.48,7.69-4.44,10.7c-2.97,3-6.56,4.5-10.78,4.5s-7.93-1.57-10.98-4.72l-4.23,3.87V14.04"/><polygon class="cls-3" points="162.83 49 162.83 9.51 158.95 9.51 154.72 13.45 158.95 13.45 158.95 52.87 176 52.87 176 49 162.83 49"/><path class="cls-4" d="M140.76,46.75h-3.38v1.83h0c.85,1.49,1.97,2.69,3.38,3.56,1.4.87,2.96,1.3,4.65,1.3s3.21-.4,4.57-1.2c1.36-.79,2.44-1.87,3.25-3.23.79-1.36,1.19-2.89,1.19-4.58,0-2.06-.59-3.89-1.8-5.49-1.19-1.61-2.75-2.65-4.68-3.18l-3.38-.98c-1.83-.52-2.74-1.72-2.74-3.59,0-.99.35-1.86,1.05-2.61.71-.75,1.61-1.13,2.68-1.13,1.74,0,2.89.75,3.46,2.25l3.52-1.48c-.57-1.41-1.49-2.53-2.79-3.38-1.29-.84-2.69-1.26-4.19-1.26-2.11,0-3.9.74-5.39,2.22-1.47,1.47-2.22,3.27-2.22,5.39,0,1.68.52,3.2,1.55,4.54,1.04,1.34,2.4,2.26,4.09,2.79l3.38.98c1.03.28,1.88.88,2.56,1.8.68.91,1.03,1.96,1.03,3.13,0,1.46-.49,2.68-1.48,3.67-.98.98-2.21,1.47-3.66,1.47-2.16,0-3.71-.94-4.65-2.81"/><path class="cls-4" d="M251.38,46.75h-3.38v1.83h0c.85,1.49,1.97,2.69,3.38,3.56,1.4.87,2.96,1.3,4.65,1.3s3.21-.4,4.57-1.2c1.36-.79,2.44-1.87,3.25-3.23.79-1.36,1.19-2.89,1.19-4.58,0-2.06-.59-3.89-1.8-5.49-1.19-1.61-2.75-2.65-4.68-3.18l-3.38-.98c-1.83-.52-2.74-1.72-2.74-3.59,0-.99.35-1.86,1.05-2.61.71-.75,1.61-1.13,2.68-1.13,1.74,0,2.89.75,3.46,2.25l3.52-1.48c-.57-1.41-1.49-2.53-2.79-3.38-1.29-.84-2.69-1.26-4.19-1.26-2.11,0-3.9.74-5.39,2.22-1.47,1.47-2.22,3.27-2.22,5.39,0,1.68.52,3.2,1.55,4.54,1.04,1.34,2.4,2.26,4.09,2.79l3.38.98c1.03.28,1.88.88,2.56,1.8.68.91,1.03,1.96,1.03,3.13,0,1.46-.49,2.68-1.48,3.67-.98.98-2.21,1.47-3.66,1.47-2.16,0-3.71-.94-4.65-2.81"/><g id="gi"><path class="cls-3" d="M86.87,27.94c-3.19,0-5.88,1.09-8.06,3.27s-3.27,4.87-3.27,8.06,1.09,5.88,3.27,8.06,4.87,3.27,8.06,3.27,5.82-1.1,8.03-3.31c2.21-2.21,3.31-4.88,3.31-8.03s-1.1-5.82-3.31-8.03c-2.21-2.21-4.88-3.31-8.03-3.31Z"/><path class="cls-3" d="M68.38,16.77v59.87h36.97V16.77h-36.97ZM86.87,21.22h15.21v.77l-.33.3h.33v.77l-4.23,3.94c-2.89-3.09-6.72-4.72-10.99-4.72h5.73c-1.77-.72-3.7-1.08-5.73-1.08ZM71.88,64.07c0-1.25,1.01-2.26,2.26-2.26s2.26,1.01,2.26,2.26-1.01,2.26-2.26,2.26-2.26-1.01-2.26-2.26ZM102.08,57.38c0,4.32-1.53,7.98-4.58,10.99-3.05,3-6.69,4.51-10.92,4.51-4.6,0-8.4-1.67-11.42-4.98.16.04.32.06.49.06,1.25,0,2.26-1.01,2.26-2.26,0-.16-.02-.31-.05-.46,2.19,2.51,5.09,3.78,8.71,3.78,3.19,0,5.93-1.09,8.21-3.27,2.28-2.18,3.41-4.96,3.41-8.35v-7.96c-3.05,3.38-6.83,5.07-11.34,5.07-4.13,0-7.7-1.5-10.7-4.51-3.01-3-4.51-6.57-4.51-10.71s1.5-7.82,4.51-10.78c3-2.96,6.57-4.44,10.7-4.44s7.93,1.57,10.99,4.72l4.23-3.94v32.54Z"/><path class="cls-1" d="M86.66,24.08c.07,0,.14,0,.21,0h-.21Z"/></g></g><g id="subtitle-ly"><g id="wtc"><path class="cls-4" d="M124.53,66.24v.86h-2.89v9.54h-1.04v-9.54h-2.9v-.86h6.83Z"/><path class="cls-4" d="M137.06,72.98h-6.74c.03.62.18,1.14.45,1.58s.62.77,1.06.99c.44.22.91.33,1.43.33.67,0,1.24-.16,1.7-.49.46-.33.77-.77.92-1.32h1.1c-.2.79-.62,1.44-1.27,1.94-.65.5-1.47.75-2.45.75-.76,0-1.45-.17-2.05-.51s-1.08-.83-1.42-1.46c-.34-.63-.51-1.37-.51-2.21s.17-1.58.51-2.22c.34-.63.81-1.12,1.41-1.46s1.29-.51,2.07-.51,1.45.17,2.03.51c.58.34,1.03.79,1.34,1.36.31.57.47,1.2.47,1.9,0,.36-.01.63-.03.82ZM135.67,70.59c-.25-.43-.6-.75-1.03-.97-.44-.22-.91-.33-1.43-.33-.77,0-1.43.25-1.98.74-.55.5-.85,1.2-.91,2.1h5.71c0-.6-.11-1.12-.36-1.55Z"/><path class="cls-4" d="M142.58,70.37c.34-.63.8-1.12,1.4-1.46.6-.34,1.27-.51,2.04-.51,1,0,1.83.25,2.48.74.65.5,1.07,1.17,1.26,2.02h-1.12c-.14-.59-.44-1.04-.9-1.38-.46-.33-1.03-.5-1.72-.5-.55,0-1.04.12-1.47.37s-.78.62-1.03,1.11c-.25.49-.38,1.09-.38,1.81s.13,1.32.38,1.82c.25.5.6.87,1.03,1.12.44.25.93.37,1.47.37.68,0,1.26-.17,1.72-.5.46-.33.76-.8.9-1.39h1.12c-.19.83-.61,1.5-1.26,2.01s-1.48.76-2.47.76c-.76,0-1.44-.17-2.04-.51-.6-.34-1.06-.83-1.4-1.46-.34-.63-.51-1.37-.51-2.21s.17-1.58.51-2.21Z"/><path class="cls-4" d="M160.76,68.76c.49.26.88.65,1.16,1.18s.42,1.18.42,1.94v4.76h-1.03v-4.64c0-.88-.22-1.56-.66-2.02-.44-.47-1.04-.7-1.81-.7s-1.41.25-1.87.74c-.47.5-.7,1.23-.7,2.19v4.43h-1.04v-11.01h1.04v4.27c.26-.49.64-.86,1.14-1.13.5-.27,1.06-.4,1.69-.4s1.17.13,1.66.39Z"/><path class="cls-4" d="M176.03,68.69c.45-.81,1.06-1.44,1.83-1.89s1.64-.68,2.59-.68c1.16,0,2.16.28,2.98.83.83.55,1.43,1.33,1.81,2.33h-1.22c-.3-.7-.75-1.25-1.36-1.65-.61-.4-1.35-.6-2.21-.6-.76,0-1.45.18-2.06.54-.61.36-1.09.87-1.44,1.54-.35.67-.52,1.45-.52,2.33s.17,1.66.52,2.32c.35.66.83,1.18,1.44,1.53.61.36,1.3.54,2.06.54.86,0,1.6-.2,2.21-.59.61-.39,1.06-.94,1.36-1.63h1.22c-.38.99-.98,1.76-1.82,2.31-.83.55-1.83.82-2.98.82-.95,0-1.82-.23-2.59-.68-.77-.45-1.38-1.08-1.83-1.88-.45-.8-.67-1.72-.67-2.74s.22-1.94.67-2.75Z"/><path class="cls-4" d="M192.37,76.25c-.61-.34-1.09-.83-1.44-1.46-.35-.63-.53-1.37-.53-2.21s.18-1.58.54-2.21c.36-.63.84-1.12,1.46-1.46.62-.34,1.3-.51,2.07-.51s1.46.17,2.08.51c.62.34,1.11.83,1.46,1.46.35.63.53,1.37.53,2.21s-.18,1.57-.54,2.2-.85,1.12-1.47,1.47-1.32.51-2.08.51-1.45-.17-2.06-.51ZM195.92,75.49c.46-.24.83-.61,1.11-1.1s.42-1.09.42-1.81-.14-1.32-.42-1.81c-.28-.49-.65-.86-1.1-1.1-.46-.24-.95-.36-1.49-.36s-1.03.12-1.49.36-.82.61-1.09,1.1c-.27.49-.41,1.09-.41,1.81s.14,1.32.41,1.81c.27.49.63.86,1.09,1.1.45.24.95.36,1.48.36s1.03-.12,1.49-.36Z"/><path class="cls-4" d="M215.98,69.27c.6.6.9,1.47.9,2.61v4.76h-1.03v-4.64c0-.88-.21-1.56-.64-2.02-.43-.47-1.01-.7-1.74-.7s-1.37.25-1.83.76c-.46.51-.68,1.24-.68,2.2v4.4h-1.03v-4.64c0-.88-.21-1.56-.64-2.02-.43-.47-1.01-.7-1.76-.7s-1.37.25-1.83.76c-.46.51-.68,1.24-.68,2.2v4.4h-1.04v-8.12h1.04v1.4c.26-.51.62-.89,1.1-1.15.48-.26,1.01-.39,1.59-.39.7,0,1.32.17,1.85.51.53.34.92.83,1.15,1.49.22-.64.59-1.14,1.12-1.48.53-.34,1.13-.51,1.81-.51.95,0,1.73.3,2.33.9Z"/><path class="cls-4" d="M225,68.94c.56-.36,1.23-.54,2-.54s1.4.17,1.99.51c.59.34,1.05.83,1.38,1.46.33.63.5,1.36.5,2.19s-.17,1.57-.5,2.2c-.33.64-.79,1.13-1.38,1.47-.59.35-1.25.52-1.99.52s-1.43-.18-1.99-.54c-.57-.36-.98-.82-1.24-1.36v5.62h-1.03v-11.96h1.03v1.79c.26-.55.67-1,1.23-1.36ZM229.42,70.82c-.26-.49-.62-.87-1.08-1.12-.46-.26-.97-.39-1.55-.39s-1.06.13-1.53.4-.83.65-1.09,1.15c-.27.5-.4,1.07-.4,1.73s.13,1.23.4,1.73c.27.5.63.88,1.09,1.15s.97.4,1.53.4,1.09-.13,1.55-.39c.46-.26.82-.64,1.08-1.15.26-.5.39-1.08.39-1.75s-.13-1.26-.39-1.75Z"/><path class="cls-4" d="M236.37,70.37c.33-.63.79-1.12,1.38-1.46.59-.34,1.26-.51,2-.51s1.44.18,2,.54c.56.36.96.81,1.21,1.37v-1.79h1.04v8.12h-1.04v-1.8c-.26.56-.67,1.01-1.23,1.38-.56.36-1.23.54-2,.54s-1.4-.17-1.99-.52c-.59-.35-1.05-.84-1.38-1.47-.33-.63-.5-1.37-.5-2.2s.17-1.56.5-2.19ZM242.57,70.85c-.27-.5-.63-.88-1.09-1.15-.46-.27-.97-.4-1.53-.4s-1.09.13-1.55.39c-.46.26-.82.63-1.08,1.12-.26.49-.39,1.07-.39,1.75s.13,1.25.39,1.75c.26.5.62.88,1.08,1.15.46.26.97.39,1.55.39s1.06-.13,1.53-.4c.46-.27.83-.65,1.09-1.15.27-.5.4-1.07.4-1.73s-.13-1.23-.4-1.73Z"/><path class="cls-4" d="M256.14,69.27c.62.6.92,1.47.92,2.61v4.76h-1.03v-4.64c0-.88-.22-1.56-.66-2.02-.44-.47-1.04-.7-1.81-.7s-1.41.25-1.87.74c-.47.5-.7,1.23-.7,2.19v4.43h-1.04v-8.12h1.04v1.38c.26-.5.63-.88,1.12-1.14.49-.26,1.04-.39,1.65-.39.97,0,1.77.3,2.38.9Z"/><path class="cls-4" d="M269.62,68.52l-4.82,11.95h-1.09l1.58-3.87-3.33-8.08h1.15l2.77,6.93,2.68-6.93h1.07Z"/><path class="cls-4" d="M23.58,66.24l-2.95,10.4h-1.16l-2.62-8.87-2.68,8.87h-1.13s-2.89-10.4-2.89-10.4h1.12l2.38,9.12,2.66-9.12h1.16l2.59,9.12,2.4-9.12h1.12Z"/><path class="cls-4" d="M36.05,72.98h-6.74c.03.62.18,1.14.45,1.58s.62.77,1.06.99c.44.22.91.33,1.43.33.67,0,1.24-.16,1.7-.49.46-.33.77-.77.92-1.32h1.1c-.2.79-.62,1.44-1.27,1.94-.65.5-1.47.75-2.45.75-.76,0-1.45-.17-2.05-.51s-1.08-.83-1.42-1.46c-.34-.63-.51-1.37-.51-2.21s.17-1.58.51-2.22c.34-.63.81-1.12,1.41-1.46s1.29-.51,2.07-.51,1.45.17,2.03.51c.58.34,1.03.79,1.34,1.36.31.57.47,1.2.47,1.9,0,.36-.01.63-.03.82ZM34.66,70.59c-.25-.43-.6-.75-1.03-.97-.44-.22-.91-.33-1.43-.33-.77,0-1.43.25-1.98.74-.55.5-.85,1.2-.91,2.1h5.71c0-.6-.11-1.12-.36-1.55Z"/><path class="cls-4" d="M43.81,68.93c.56-.36,1.22-.54,1.99-.54s1.41.17,1.99.51c.59.34,1.04.83,1.38,1.46.33.63.5,1.36.5,2.19s-.17,1.57-.5,2.2c-.33.64-.79,1.13-1.38,1.47-.59.35-1.25.52-1.99.52-.77,0-1.44-.18-2-.53-.56-.35-.97-.81-1.23-1.38v1.79h-1.03v-11.01h1.03v4.69c.27-.57.68-1.03,1.24-1.38ZM48.22,70.82c-.26-.49-.62-.87-1.08-1.12-.46-.26-.97-.39-1.55-.39s-1.06.13-1.53.4-.83.65-1.09,1.15c-.27.5-.4,1.07-.4,1.73s.13,1.23.4,1.73c.27.5.63.88,1.09,1.15s.97.4,1.53.4,1.09-.13,1.55-.39c.46-.26.82-.64,1.08-1.15.26-.5.39-1.08.39-1.75s-.13-1.26-.39-1.75Z"/></g></g><g id="arrow-ly"><g id="arrows"><path class="cls-2" d="M274.43,15.26V.12H109.56v11.79h-45.38V.12H2.07v14.41c-1.1.16-1.94,1.09-1.94,2.23,0,1.25,1.01,2.26,2.26,2.26s2.26-1.01,2.26-2.26c0-1.14-.85-2.07-1.94-2.23V.77h60.82v11.79h46.68V.77h163.57v14.49h-2.29l2.61,4.53,2.61-4.53h-2.29Z"/><path class="cls-2" d="M274.1,55.13c-1.14,0-2.07.84-2.23,1.94H109.56v23.77h-45.38v-23.77H4.09l-3.97-2.29v5.23l3.97-2.29h59.44v23.77h46.68v-23.77h161.66c.16,1.1,1.09,1.94,2.23,1.94,1.25,0,2.26-1.01,2.26-2.26s-1.01-2.26-2.26-2.26Z"/></g></g></svg>