<?xml version="1.0" encoding="UTF-8"?><svg id="Layer_2" xmlns="http://www.w3.org/2000/svg" viewBox="0 0 181.83 181.83"><defs><style>.cls-1{fill:#fff;stroke:#ccc;stroke-miterlimit:10;stroke-width:3px;}.cls-2{fill:#ccc;}</style></defs><g id="Layer_1-2"><circle class="cls-1" cx="90.91" cy="90.91" r="89.41"/><path class="cls-2" d="M116.98,75.51c.58.4,1.47-1.36,1.73-1.79,2.49-4.1,3.14-9.64,3.31-14.35,1.5,1.34,1.94,4.06,2.25,5.98,2.15,13.29-2.54,34.12-13.01,43.28-2.22,1.95-5.42,4.19-8.41,4.53l1.85-1.67c10.25-11.58,7.47-29.44.1-41.8-3.37-5.66-7.76-9.79-12.71-14.02,2.73-.02,5.7,1.54,8.08,2.85,6.84,3.76,13.32,9.96,16.81,16.99Z"/><path class="cls-2" d="M98.36,71.93c6.73,6.78,10.77,17.29,9.11,26.87-.06.37-.43,1.59-.76,1.59-1.24-2.35-2.14-4.47-3.88-6.54-8.28-9.92-24.14-13.57-36.38-10.51-3.13.79-5.96,2.26-9,3.26-.41-.43,1.04-1.88,1.33-2.19,7.71-8.33,22.18-9.86,32.63-6.89-1.82-6.51-6.12-12.05-11.09-16.47,6.58,1.99,13.18,5.98,18.04,10.87Z"/><path class="cls-2" d="M132.78,87.95c.73.73,7.41-3,8.5-3.7.32-.21.16-.77.4-.67.41.37.64.42.34,1.01s-2.12,2.72-2.69,3.37c-2.28,2.6-5.33,5.31-8.14,7.33-1.25.9-8.96,5.91-9.86,5.1,1.33-2.85,3.06-5.45,4.2-8.4.47-1.22,1.06-3.03,1.42-4.3,2.08-7.31,2.2-14.75,1.44-22.26l2.74,4.48c2.37,5.69,2.63,12.02,1.62,18.05Z"/><path class="cls-2" d="M91.75,63.4l-9.59-9.75-.5.16c.77.89,2.27,2.25,1.85,3.53-7.99-3.1-16.11-8.4-17.65-17.48,13.08.42,21.66,12.39,25.89,23.53Z"/><path class="cls-2" d="M62.95,69c-3.4-3.97,1.5-6.54,5.09-6.63s12.34,2.47,10.34,7.33c-1.84,4.47-12.63,2.56-15.43-.7Z"/><path class="cls-2" d="M110.15,48.68c6.72-1.52,10.28,14.71,3.33,14.03-5.34-.52-8.09-12.96-3.33-14.03Z"/><path class="cls-2" d="M66.53,74.84c.08.59-.76.32-1.17.33-5.81.23-12.13-.19-17.32,2.86,3.6-.16,7.39-.65,11.09-.84.19.86-.23.59-.63.87-4.54,3.21-12.38,4.55-17.53,2.32,5.41-8.61,16.84-8.31,25.55-5.54Z"/><path class="cls-2" d="M59.47,60.04l-7.84-5.1-4.6-1.62c-.34.25,6.57,4.11,6.72,5.04-5.81.33-12.06-3.03-14.46-8.4,6.55-1.29,13.85,1.11,18.17,6.21.94,1.11,2.04,2.32,2.01,3.87Z"/><path class="cls-2" d="M104.53,44.57l-1.43-4.78c-.18-1.35-1.38-4.02-2.26-5.13-.25-.31-.57-.55-.84-.84,0,2.38,1.25,4.87,1.18,7.39-.86-.15-1.82-1.56-2.29-2.24-3.15-4.52-3.68-9.17-2.75-14.57,2.9.72,5.43,4.74,6.55,7.4,1.58,3.74,2.39,8.81,1.85,12.77Z"/><path class="cls-2" d="M50.18,70.02c.18.21,1.04.31.73.77-1.44-1.23-3.55-1.08-5.09-1.62-.47-.16-.45-.64-.93-.78-2.25-.68-4.57-1.15-6.93-.95l5.56,2,1.16.86c-5.25,1.28-11.67.25-15.13-4.2,6.88-3.28,15.6-1.72,20.63,3.93Z"/><path class="cls-2" d="M137.48,40.21c.38.27,1.66,6.03,1.69,6.9.11,3.31-1.36,8.46-3.3,11.15-.3.42-.34.94-1.07.78.94-3.04,1.11-6.25,1.01-9.41-.96-.17-.55.24-.76.74-.62,1.53-1.25,3.07-1.76,4.64-1.3-3.24-.88-7.49.44-10.65.36-.86,2.59-4.95,3.75-4.14Z"/><path class="cls-2" d="M98.7,41.66c1.65,1.65,2.16,3.9,3.04,5.86.17.37.62.4.74.69.92,2.25,1.47,5.04,1.37,7.46l-3.42-6.49c-.46-.76-2.43-3.74-2.96-4.11-.24-.17-.91-.37-1.01,0,1.3,2.05,1.82,4.55,2.35,6.89-.47.51-2.87-2.66-3.16-3.05-2.16-2.94-3.78-6.71-2.87-10.39.69-.48,5.27,2.47,5.93,3.13Z"/><path class="cls-2" d="M68.78,51.09c.63.54,2.83,3.01,3.42,3.79.86,1.14,1.98,2.7,2.07,4.15-1.56-1.27-2.95-2.79-4.55-4.03-1.45-1.12-3.76-3.13-5.54-2.87l4.7,5.05c.1.46-.02.63-.49.49-4.29-1.27-9.35-5.91-10.26-10.42,3.86-.24,7.74,1.32,10.65,3.83Z"/><path class="cls-2" d="M141.77,70.53c6.56-.99,1.26,12.18-3.97,10.55-3.88-1.21-.43-9.89,3.97-10.55Z"/><path class="cls-2" d="M91.08,50.29c-6.03-2.4-10.77-7.83-11.43-14.46,5.99,2.39,10.65,7.99,11.43,14.46Z"/><path class="cls-2" d="M117.98,41.55l-1.32-1.6c-.16-.46-1.19-7.31-2.38-6.13l.35,1.83-.35,3.55c-2.43-3.79-4.37-8.54-1.85-12.77,4.98,3.11,6.64,9.6,5.54,15.13Z"/><path class="cls-2" d="M76.62,39.87c-5.41-.87-9.56-6.09-10.08-11.43,4.84,1.98,9.57,5.89,10.08,11.43Z"/><path class="cls-2" d="M150.93,56.34c.23,4.88-3.42,10.05-8.4,10.76-.06-4.84,3.43-10.14,8.4-10.76Z"/><path class="cls-2" d="M64.85,44.57c-.75.81-4.74-4.45-6.05-3.53l2.69,3.53c-.73.86-3.98-1.61-4.68-2.21-1.85-1.57-3.49-3.68-3.72-6.19,2.28-.05,5.2.89,7.04,2.2.86.61,5.51,5.36,4.73,6.2Z"/><path class="cls-2" d="M83.01,24.74c4.12,2.98,7.27,7.84,6.05,13.11-2.36-.63-6.05-5.73-6.05-7.9v-5.21Z"/><path class="cls-2" d="M53.08,84.59c-1.28,4.86-7.68,6.32-12.1,6.39,1.25-5.02,7.36-6.92,12.1-6.39Z"/><path class="cls-2" d="M129.41,40.88c-.94-.16-.57.19-.76.74-.39,1.11-.69,2.47-.93,3.63-.48.08-.45-.58-.57-.94-.75-2.37-.73-6.3.32-8.55,1.51-3.23,2.44-1.66,3.34.85,1.25,3.54.73,8.49-1.24,11.66-1.03.09-.16-.36-.16-.5v-6.89Z"/><path class="cls-2" d="M111.25,46.93c-.61.47-2.8-2.62-3.09-3.13-1.76-3.06-1.46-5.94-.94-9.31.34-.36,2.42,1.83,2.69,2.18,2.22,3,2.57,6.77,1.34,10.25Z"/><path class="cls-2" d="M41.64,74.52c.44.69-1.12,1.77-1.69,2.15-2.94,1.96-7.43,3-10.73,1.37,2.21-3.04,5.46-4.46,9.25-4.21.49.03,3.07.54,3.17.7Z"/><path class="cls-2" d="M59.47,68.11c-3.32.97-6.8-.06-9.42-2.18-.43-.34-2.64-2.44-2.35-2.86,4.77-1.31,9.45.8,11.77,5.04Z"/><path class="cls-2" d="M139.5,61.05c.4,3.94-1.54,8.25-5.37,9.75-.15-.63-.36-1.11-.32-1.8.03-.51,1.23-5.3,1.4-5.53.14-.2.9-.29,1.25-.59.89-.74,1.76-1.91,3.04-1.84Z"/><path class="cls-2" d="M127.05,47.94c1.87,3.72,1.78,8.15-1.34,11.09-1.59-3.36-1.95-6.02-.18-9.42.17-.33.99-2.15,1.51-1.67Z"/><path class="cls-2" d="M145.55,48.95c.9,3.04.29,5.79-1.69,8.23-.83,1.02-2.43,3-2.7.7-.36-3.17.84-6.46,3.37-8.43.34-.26.43-.65,1.01-.5Z"/><path class="cls-2" d="M53.3,44.35c.36.39,2.04,3.36,1.8,3.58-3.65.08-7.26-2.61-8.4-6.05,2.15.14,5.09.83,6.61,2.47Z"/><path class="cls-2" d="M40.14,57.02c1.15.19,3.72,2.14,4.19,3.21.35.79-1.81.86-2.17.86-2.45-.04-6.34-1.61-7.23-4.06,1.6.18,3.68-.25,5.21,0Z"/><path class="cls-2" d="M79.98,33.14c-3.29-.83-5.26-4.14-5.38-7.39,3.39.97,6.08,3.62,5.38,7.39Z"/><path class="cls-2" d="M123.02,46.59c-2.1-1.26-2.89-4.19-2.65-6.52.26-2.44.99-3.06,2.32-.72,1.37,2.4,1.17,4.71.32,7.24Z"/><path class="cls-2" d="M93.09,31.8c-.94.62-2.58-2.29-2.79-3.09-.42-1.62-.35-3.39.11-4.98,2.55.05,3.88,7.28,2.68,8.07Z"/><path class="cls-2" d="M152.61,65.42c-.09,3.12-2.45,6.29-5.71,6.38.48-3.09,2.4-6.03,5.71-6.38Z"/><path class="cls-2" d="M66.2,37.85c-2.79-.22-5.49-2.93-5.71-5.71,3.01.63,5.55,2.42,5.71,5.71Z"/><path class="cls-2" d="M123.02,35.83c-1.3,1.09-2.71-3.47-2.72-4.54-.05-4.73,3.05-.37,3.08,2.36,0,.31-.28,2.11-.37,2.18Z"/><path class="cls-2" d="M41.99,83.58c.63.84-2.89,2.11-3.35,2.2-1.46.28-2.92.12-4.38.15-.59-.52,2.52-2.12,2.94-2.26,1.57-.54,3.2-.62,4.79-.08Z"/><path class="cls-2" d="M105.2,25.41c.74-.79,2.39,2.13,2.53,2.68.41,1.55.51,5.63-1.52,3.2-1.44-1.72-1.19-3.81-1.01-5.88Z"/><path class="cls-2" d="M120.33,51.97c-.78.21-.56-.2-.77-.43-1.68-1.92-2.36-4.14-1.58-6.63,2.74,1.02,2.97,4.6,2.35,7.06Z"/><path class="cls-2" d="M150.59,74.5c-.29,2.67-2.77,4.53-5.38,4.7-.12-2.54,2.99-4.74,5.38-4.7Z"/><path class="cls-2" d="M132.1,57.35c.56,1.7.74,4.76-1.34,5.38-.56-1.7-.74-4.76,1.34-5.38Z"/><path class="cls-2" d="M105.88,152.62c.44,1.96-1.68,1.95-3.18,2.03-3.63.2-7.48-.92-6.09-5.41,1.12-3.6,10.52-4.42,10.27-.51-.19,3.01-5.38,2.77-5.37,3.39.03,1.55,4.13.27,4.36.51ZM101.18,150.26c.71.08,1.43-.04,2-.51,2.48-2.05-3.25-3.69-2,.51Z"/><path class="cls-2" d="M118.32,153.96l-3.99.29c-.54-.34-.56-7.12-.18-7.39.68-.48,4.17-1.09,4.17-.13v7.23Z"/><path class="cls-2" d="M36.61,132.78c.76.14.53-.04.75-.43,1.71-3.12-.33-5.38-.39-8.62,1-.22,4.62-1.24,5.21-.38.36.52,1.24,9.44,2,9.44.62-1.03.99-2.22,1.34-3.37s1.09-5.66,1.34-6.07c.37-.61,1.77.23,2.53.02.73.7-2.7,11.91-4.18,12.8-.7.42-3.58.55-4.23.15-.44-.27-1.18-2.24-1.34-2.86-.92.29-.81,1.61-1.32,2.2-.73.85-3.79,1.16-4.72.65-1.17-.64-3.95-10.18-4.02-11.81-.07-1.74,4.77-1.76,5.21-1.14.75,1.06.79,7.66,1.84,9.43Z"/><path class="cls-2" d="M52.75,124.21c.2-1.16,4.71-2.3,4.71-.67v5.21c5.32-2.05,6.75.49,6.07,5.56-.18,1.36-1.28,1.77-2.59,1.82-3.56.14-.46-5.51-2.64-5.72s-.62,4.1-1.22,5.02c-.28.43-4.33,1.23-4.33-.12,0-3.05-.46-8.37,0-11.1Z"/><path class="cls-2" d="M142.53,146.23v8.24c0,.1-.7,1.64-.85,1.84-1.16,1.54-6.73,3.1-6.22,0,1.2.66,3.59-.98,2.69-2.02-.09-.11-2,.41-2.85.34-3.73-.32-5.27-3.73-2.86-6.56,2.71-3.18,6.58-1.14,10.09-1.85ZM138.16,147.57c-2.87-.66-2.89,6.02,0,5.38v-5.38Z"/><path class="cls-2" d="M118.99,125.38c-1.22,0-3.9-.44-3.72,1.5.18,1.82,4.6,2.43,4.07,6.42-.4,3.02-5.9,3.51-8.27,3.19-1.27-.17-2.18-1.49-1.17-2.22.35-.25,3.47.94,3.72-.99.3-2.38-4.45-2.01-3.69-6.7.4-2.51,4.33-3.66,6.54-3.57,1.73.07,2.88.41,2.52,2.38Z"/><path class="cls-2" d="M39.76,152.5c-2.52-2.68-1.79-7.75,1.33-9.7,1.56-.98,8.46-2.45,8.25-.17-.17,1.87-1.86.71-3.06.96-3.37.7-3.31,8.06-.08,8.37,1.14.11,3.1-.97,3.23.48s-1.53,1.68-2.58,1.81c-2.25.27-5.45-.04-7.07-1.76Z"/><path class="cls-2" d="M67.66,129.53c2.36-2.34,10.35-2.38,10.96,1.76.73,5-6.19,6.18-9.73,4.68-2.56-1.08-3.19-4.5-1.23-6.44ZM71.95,129.45c-.68.47-1.37,5.69.47,5.7,2.31,0,1.83-7.28-.47-5.7Z"/><path class="cls-2" d="M54.34,146.31c2.9-.48,8.17-.21,8.16,3.79s-4.97,4.92-8.16,4.45c-5.61-.83-5.08-7.39,0-8.24ZM56.34,147.61c-1.72.46-1.71,5.7-.06,5.7,2.05,0,2.14-6.25.06-5.7Z"/><path class="cls-2" d="M119.66,147.74c.28-1.29,2.74-1.86,3.83-1.47.51.18.46.99.73.99,1.15,0,3.34-2.09,5.43-.59,1.06.76,1.08,6.65.45,7.13-.52.39-3.45.81-3.9.18-.67-.96.71-5.4-.99-5.4-1.4,0-.7,4.07-1.33,5.06-.5.78-4.21.97-4.21.16,0-1.58-.28-4.74,0-6.05Z"/><path class="cls-2" d="M79.67,147.22c.31.23,5.86-3.19,6.37,1.19.09.74.1,4.88-.15,5.24-.38.54-3.07.89-3.75.35-1.34-1.07.72-5.66-1.65-5.43-1.72.16-.29,4.01-1,5.08-.38.57-3.33.92-3.83.61-.41-3-1.88-8.52,2.82-8.05,1.38.14.98.87,1.19,1.02Z"/><path class="cls-2" d="M69.56,151.95c-.19-4.08-.55-6.19,4.37-5.72-.49,1.64.39,5.93-.05,7.17-.3.86-3,1.12-3.78.85-.54-.19-.48-.9-.56-.96-.21-.17-2.94,2.24-5.05.18-1.06-1.03-1.46-5.71-.84-6.6.35-.5,3.22-.88,3.91-.51,1.18.82-1.15,6.32,1.99,5.57Z"/><path class="cls-2" d="M149.92,128.07c.31.3,2.06-.7,1.69.85-.31,1.29-1.68.5-1.98,1.38-.81,2.3,1.68,5.66-2.32,6.1-3.62.4-1.48-4.07-2.07-6.11-.11-.37-1.55-.18-1.37-1.04.1-.47,1.26-.72,1.35-1.08.29-1.25-.03-2.93.98-4.23.77-.99,4.88-1.89,5.58-.92,1.03,1.43-1.56,1.17-1.82,1.9-.11.3-.16,3.04-.04,3.15Z"/><path class="cls-2" d="M95.12,133.79c.99,1.59,2.91.43,4.37.67.63,2.45-4.24,2.21-5.86,1.99-4.77-.66-4.78-6.3-.53-7.86,8.07-2.97,10.83,4.56,2.01,5.21ZM97.11,129.44c-1.11-.8-2.77,1.55-2.33,2.66,1.51.64,3.48-1.83,2.33-2.66Z"/><path class="cls-2" d="M86.34,122.73c.49.41.43,6.13.39,7.21-.03.83-.28,4.97-.4,5.32-.25.72-3.08,1.06-3.77.9-.47-.11-.55-1.42-.58-1.85-.1-1.5-.24-9.49.07-10.38s3.76-1.64,4.28-1.19Z"/><path class="cls-2" d="M112.23,140.89c.49.41.43,6.13.39,7.21-.03.83-.28,4.97-.4,5.32-.26.77-3.58,1.41-4.16.21-.33-.67-.31-10.43-.02-11.46.34-1.22,3.05-1.46,4.19-1.28Z"/><path class="cls-2" d="M136.52,136.09c-.29-.56-.35-1.16-.4-1.79-.11-1.47-.24-9.51.06-10.39.21-.63,3.09-1.42,3.77-1.19,1.44.49.55,3.51.54,4.49-.02,1.36.31,7.95-.32,8.43-.42.32-3.23.71-3.66.45Z"/><path class="cls-2" d="M125.04,136.14c-2.49-.72-3.24-2.49-2.47-4.99,1.23-3.98,11.47-4.49,10.05-.04-.65,2.05-3.81,2.2-5.57,2.68.7,1.87,3.13.47,4.38,1.17.92.52-.56.77-.68.85-1.89.51-3.97-.53-5.72.34ZM129.39,129.44c-1.24-.89-2.85,1.85-2.32,3,1.25.03,3.64-2.05,2.32-3Z"/><path class="cls-2" d="M95.46,147.91c-6.05.13-.12,1.69.27,3.61.87,4.18-8.39,3.54-8.68,2.27.03-1.47,2.81-.35,3.02-1.35.17-.82-2.04-1.66-2.44-2.6-.22-.51-.47-2.27-.21-2.57.11-.13,2.81-.97,3.18-1.02,1.53-.21,5.56-.64,4.85,1.65Z"/><path class="cls-2" d="M118.24,141.27c2.15,2.14-3.12,4.78-4.39,2.18-.99-2.02,3.07-3.5,4.39-2.18Z"/><path class="cls-2" d="M130.76,135.81c-.08.05-.14.42-.35.5-1.27.47-4.04.22-5.37-.16,1.74-.86,3.82.18,5.72-.34Z"/></g></svg>