<?xml version="1.0" encoding="UTF-8"?><svg id="Layer_2" xmlns="http://www.w3.org/2000/svg" viewBox="0 0 64 64"><defs><style>.cls-1,.cls-2{fill:#fff;}.cls-2{stroke:#07549b;}.cls-2,.cls-3{stroke-miterlimit:10;}.cls-3{fill:none;stroke:#fff;stroke-width:2px;}.cls-4{fill:#07549b;}</style></defs><g id="Layer_1-2"><rect class="cls-1" width="64" height="64" rx="12" ry="12"/><rect class="cls-2" x="3.32" y="3.92" width="57.78" height="45.77" rx="5.04" ry="5.04"/><rect class="cls-4" x="5.14" y="5.3" width="54.14" height="43" rx="3.86" ry="3.86"/><path class="cls-3" d="M49.05,28.27c-.84-.49-1.77-.76-2.75-.76-2.97,0-5.49,2.51-6.44,6-.94-3.49-3.47-6-6.44-6s-5.49,2.51-6.44,6c-.94-3.49-3.47-6-6.44-6-3.62,0-6.57,3.7-6.82,8.39"/><circle class="cls-1" cx="49.05" cy="28.27" r="3.92"/><circle class="cls-4" cx="49.05" cy="28.27" r="3.04"/><circle class="cls-4" cx="13.74" cy="35.91" r="2.29"/><circle class="cls-1" cx="13.74" cy="35.91" r=".93"/><circle class="cls-1" cx="49.05" cy="28.27" r=".93"/><path class="cls-1" d="M36.17,15.74l-6.98,4.03c-.86.5-1.93-.12-1.93-1.11v-8.06c0-.99,1.07-1.61,1.93-1.11l6.98,4.03c.86.5.86,1.73,0,2.23Z"/><rect class="cls-1" x="15.74" y="49.69" width="32.95" height="4.75" rx="1.44" ry="1.44"/><rect class="cls-4" x="16.5" y="50.53" width="31.43" height="3.06" rx=".85" ry=".85"/><rect class="cls-4" x="10.83" y="54.44" width="42.77" height="5.64" rx="1.44" ry="1.44"/><rect class="cls-4" x="11.83" y="55.41" width="40.76" height="3.7" rx=".85" ry=".85"/><circle class="cls-1" cx="48.19" cy="57.26" r=".5"/><circle class="cls-1" cx="46.47" cy="57.26" r=".5"/><circle class="cls-1" cx="44.76" cy="57.26" r=".5"/><path class="cls-4" d="M31.95,12.72h-1.12c.15,0,.29.03.42.08h-.42c.32,0,.6.12.81.35l.31-.29v-.06h-.02l.02-.02v-.06Z"/><path class="cls-4" d="M31.64,13.28c-.23-.23-.5-.35-.81-.35s-.57.11-.79.33c-.22.22-.33.48-.33.8s.11.57.33.79c.22.22.49.33.79.33.33,0,.61-.12.84-.37v.59c0,.25-.08.46-.25.62-.17.16-.37.24-.61.24-.27,0-.48-.09-.64-.28,0,.01,0,.02,0,.03,0,.09-.07.17-.17.17-.01,0-.02,0-.04,0,.22.25.5.37.84.37.31,0,.58-.11.81-.33.23-.22.34-.49.34-.81v-2.4l-.31.29ZM31.42,14.64c-.16.16-.36.24-.59.24s-.43-.08-.6-.24-.24-.36-.24-.6.08-.43.24-.6.36-.24.6-.24.43.08.59.24c.16.16.24.36.24.59s-.08.43-.24.59Z"/><circle class="cls-4" cx="29.89" cy="15.88" r=".17"/></g></svg>