<?xml version="1.0" encoding="UTF-8"?><svg id="Layer_2" xmlns="http://www.w3.org/2000/svg" viewBox="0 0 64 64"><defs><style>.cls-1,.cls-2{fill:#fff;}.cls-3{stroke:#fff;}.cls-3,.cls-2{stroke-miterlimit:10;stroke-width:.5px;}.cls-3,.cls-4{fill:#07549b;}.cls-2{stroke:#07549b;}</style></defs><g id="Layer_1-2"><rect class="cls-1" width="64" height="64" rx="12" ry="12"/><rect class="cls-2" x="2.78" y="3.94" width="58.44" height="48.95" rx="2.8" ry="2.8"/><rect class="cls-4" x="5.02" y="6.46" width="53.95" height="43.91"/><circle class="cls-1" cx="6.71" cy="8.24" r=".67"/><circle class="cls-1" cx="9.08" cy="8.24" r=".67"/><circle class="cls-1" cx="11.46" cy="8.24" r=".67"/><path class="cls-1" d="M25.05,25.55h1.26s0-2.35,0-2.35h-1.26c-.21-1.55-.82-2.97-1.72-4.15l.89-.89-1.66-1.66-.89.89c-1.18-.9-2.6-1.51-4.15-1.72v-1.26h-2.35v1.26c-1.55.21-2.97.82-4.16,1.72l-.89-.89-1.66,1.66.89.89c-.9,1.19-1.51,2.6-1.72,4.15h-1.26s0,2.35,0,2.35h1.26c.21,1.55.82,2.96,1.72,4.15l-.89.89,1.66,1.66.89-.89c1.18.9,2.6,1.51,4.15,1.72v1.26s2.35,0,2.35,0v-1.26c1.55-.21,2.96-.82,4.15-1.72l.89.89,1.66-1.66-.89-.89c.9-1.18,1.51-2.6,1.72-4.15Z"/><circle class="cls-1" cx="16.34" cy="24.38" r="7.57"/><path class="cls-1" d="M41.83,37.28h1.26s0-2.35,0-2.35h-1.26c-.21-1.55-.82-2.97-1.72-4.15l.89-.89-1.66-1.66-.89.89c-1.18-.9-2.6-1.51-4.15-1.72v-1.26h-2.35v1.26c-1.55.21-2.97.82-4.16,1.72l-.89-.89-1.66,1.66.89.89c-.9,1.19-1.51,2.6-1.72,4.15h-1.26s0,2.35,0,2.35h1.26c.21,1.55.82,2.96,1.72,4.15l-.89.89,1.66,1.66.89-.89c1.18.9,2.6,1.51,4.15,1.72v1.26s2.35,0,2.35,0v-1.26c1.55-.21,2.96-.82,4.15-1.72l.89.89,1.66-1.66-.89-.89c.9-1.18,1.51-2.6,1.72-4.15Z"/><circle class="cls-1" cx="33.12" cy="36.11" r="7.57"/><rect class="cls-4" x="34.95" y="20.45" width="23.61" height="39.62" rx="3" ry="3"/><rect class="cls-3" x="35.98" y="21.58" width="21.54" height="37.34" rx="2.3" ry="2.3"/><rect class="cls-1" x="40.87" y="22.85" width="11.76" height="1.92" rx=".87" ry=".87"/><rect class="cls-1" x="44.59" y="57.39" width="4.33" height="1.09" rx=".5" ry=".5"/><path class="cls-1" d="M42.93,42.8l-4.76-2.18v-.73l4.76-2.18v.72l-4.12,1.79v.06l4.12,1.79v.72Z"/><path class="cls-1" d="M44.22,44.88l4.36-9.25h.7l-4.36,9.25h-.7Z"/><path class="cls-1" d="M50.57,42.8v-.72l4.05-1.79v-.06l-4.05-1.79v-.72l4.76,2.18v.73l-4.76,2.18Z"/><path class="cls-4" d="M19.35,19.27h-3.01c.4,0,.78.07,1.13.21h-1.13c.85,0,1.6.32,2.17.93l.84-.78v-.15h-.06l.06-.06v-.15Z"/><path class="cls-4" d="M18.52,20.77c-.6-.62-1.33-.93-2.17-.93s-1.52.29-2.12.88c-.59.59-.89,1.3-.89,2.13s.3,1.52.89,2.12c.59.59,1.3.89,2.12.89.89,0,1.64-.33,2.24-1v1.57c0,.67-.23,1.22-.68,1.65-.45.43-.99.65-1.62.65-.72,0-1.29-.25-1.72-.75,0,.03,0,.06,0,.09,0,.25-.2.45-.45.45-.03,0-.07,0-.1-.01.6.66,1.35.99,2.26.99.84,0,1.56-.3,2.16-.89.6-.59.91-1.32.91-2.17v-6.44l-.84.78ZM17.93,24.43c-.44.44-.97.66-1.59.66s-1.16-.22-1.6-.65-.65-.96-.65-1.6.22-1.16.65-1.6.96-.65,1.6-.65,1.15.22,1.59.65c.44.44.65.97.65,1.59s-.22,1.15-.65,1.59Z"/><circle class="cls-4" cx="13.82" cy="27.75" r=".45"/></g></svg>