<?xml version="1.0" encoding="UTF-8"?><svg id="Layer_2" xmlns="http://www.w3.org/2000/svg" viewBox="0 0 64 64"><defs><style>.cls-1,.cls-2{fill:#fff;}.cls-2{stroke:#07549b;stroke-linecap:round;}.cls-2,.cls-3{stroke-miterlimit:10;}.cls-4,.cls-3{fill:#07549b;}.cls-3{stroke:#fff;stroke-width:.25px;}</style></defs><g id="Layer_1-2"><rect class="cls-1" width="64" height="64" rx="12" ry="12"/><path class="cls-4" d="M31.91,32c.06,0,.11,0,.17,0h-.17Z"/><path class="cls-4" d="M53.61,2.54v58.93H10.39V2.54h43.21ZM17.76,8.43c-2.18.88-1.28,3.93,0,3.93h12.97c1.69,0,1.69-3.93,0-3.93h-12.97ZM17.76,26.11c-2.18.88-1.28,3.93,0,3.93h28.48c1.69,0,1.69-3.93,0-3.93h-28.48ZM17.76,35.93c-2.18.88-1.28,3.93,0,3.93h14.73c1.69,0,1.69-3.93,0-3.93h-14.73ZM41.48,36.08c-2.16.66-2.16,2.96,0,3.63,8.02,2.46,8.07-6.07,0-3.63ZM17.76,43.79c-2.18.88-1.28,3.93,0,3.93h28.48c1.69,0,1.69-3.93,0-3.93h-28.48ZM17.92,51.8c-7.52,4.57,11.24,6.43,12.12,2.29.72-3.41-10.52-3.26-12.12-2.29Z"/><path class="cls-1" d="M17.76,26.11h28.48c1.69,0,1.69,3.93,0,3.93h-28.48c-1.28,0-2.18-3.05,0-3.93Z"/><path class="cls-1" d="M17.76,43.79h28.48c1.69,0,1.69,3.93,0,3.93h-28.48c-1.28,0-2.18-3.05,0-3.93Z"/><path class="cls-1" d="M17.32,8.43h13.82c1.13,0,1.14,3.93,0,3.93h-13.82c-.86,0-1.46-3.05,0-3.93Z"/><path class="cls-1" d="M17.65,18.96h14.73c1.69,0,1.69,3.93,0,3.93h-14.73c-1.28,0-2.18-3.05,0-3.93Z"/><path class="cls-1" d="M17.76,35.93h14.73c1.69,0,1.69,3.93,0,3.93h-14.73c-1.28,0-2.18-3.05,0-3.93Z"/><path class="cls-1" d="M17.92,51.8c1.61-.96,12.83-1.12,12.12,2.29-.87,4.15-19.64,2.21-12.12-2.29Z"/><path class="cls-1" d="M41.48,36.08c8.07-2.45,8.02,6.08,0,3.63-2.16-.66-2.16-2.97,0-3.63Z"/><rect class="cls-3" x="36.02" y="7.64" width="11.49" height="15.52"/><path class="cls-1" d="M45.86,8.44h-4.1c.55,0,1.07.1,1.54.29h-1.54c1.15,0,2.18.44,2.96,1.27l1.14-1.06v-.21h-.09l.09-.08v-.21Z"/><path class="cls-1" d="M44.73,10.48c-.82-.85-1.81-1.27-2.96-1.27s-2.07.4-2.88,1.2c-.81.8-1.21,1.76-1.21,2.9s.4,2.07,1.21,2.88c.81.81,1.77,1.21,2.88,1.21,1.21,0,2.23-.46,3.05-1.37v2.14c0,.91-.31,1.66-.92,2.25-.61.59-1.35.88-2.21.88-.98,0-1.76-.34-2.35-1.02,0,.04.01.08.01.12,0,.34-.27.61-.61.61-.05,0-.09,0-.13-.02.81.89,1.84,1.34,3.08,1.34,1.14,0,2.12-.4,2.94-1.21.82-.81,1.23-1.8,1.23-2.96v-8.77l-1.14,1.06ZM43.93,15.47c-.59.59-1.32.89-2.16.89s-1.58-.29-2.17-.88-.88-1.31-.88-2.17.29-1.58.88-2.17,1.31-.88,2.17-.88,1.57.3,2.16.89c.59.59.89,1.32.89,2.16s-.3,1.57-.89,2.16Z"/><circle class="cls-1" cx="38.34" cy="19.99" r=".61"/><rect class="cls-1" x="16.34" y="32.78" width="22" height="9.05"/><circle class="cls-4" cx="35.3" cy="34.57" r=".72"/><path class="cls-4" d="M17.84,40.16c1.47-1.71,3.04-3.3,4.68-4.82,1.71,1.06,3.41,2.15,5.05,3.32,0,0-.45-.01-.45-.01.89-.47,1.8-.92,2.71-1.34.57.55,1.17,1.07,1.72,1.65-.66-.35-1.28-.76-1.92-1.14l.28.02c-.84.59-1.7,1.15-2.57,1.7-1.72-1-3.38-2.09-5.03-3.2,0,0,.57-.04.57-.04-1.61,1.37-3.28,2.68-5.05,3.88h0Z"/><rect class="cls-2" x="36.02" y="50.26" width="11.5" height="7.54"/><polygon class="cls-4" points="43.92 54.03 40.69 55.89 40.69 52.17 43.92 54.03"/></g></svg>