<?xml version="1.0" encoding="UTF-8"?><svg id="Layer_2" xmlns="http://www.w3.org/2000/svg" viewBox="0 0 64 64"><defs><style>.cls-1,.cls-2{fill:#fff;}.cls-3{fill-rule:evenodd;}.cls-3,.cls-4{fill:#07549b;}.cls-2{stroke:#07549b;stroke-miterlimit:10;stroke-width:.5px;}</style></defs><g id="Layer_1-2"><rect class="cls-1" width="64" height="64" rx="12" ry="12"/><rect class="cls-4" x="3.43" y="5.11" width="57.14" height="44.29" rx="5.07" ry="5.07"/><rect class="cls-1" x="32.23" y="7.14" width="26.04" height="40.07" rx="4.5" ry="4.5"/><rect class="cls-4" x="16.86" y="50.61" width="30.29" height="8.29" rx="4.14" ry="4.14"/><path class="cls-1" d="M16.73,12.27s.09,0,.14,0h-.14s0,0,0,0Z"/><path class="cls-1" d="M26.77,10.41h-9.91c1.33,0,2.58.24,3.73.7h-3.73c2.78,0,5.28,1.06,7.16,3.07l2.75-2.57v-.5s-.21,0-.21,0l.21-.2v-.5Z"/><path class="cls-1" d="M24.02,15.34c-1.99-2.05-4.37-3.07-7.16-3.07-2.69,0-5.02.96-6.97,2.89-1.96,1.93-2.94,4.27-2.94,7.02,0,2.69.98,5.02,2.94,6.97,1.96,1.96,4.28,2.94,6.97,2.94,2.94,0,5.4-1.1,7.38-3.3v5.18c0,2.2-.74,4.01-2.22,5.44-1.48,1.42-3.26,2.13-5.34,2.13-2.36,0-4.24-.83-5.67-2.46.02.1.03.2.03.3,0,.81-.66,1.47-1.47,1.47-.11,0-.22-.01-.32-.04,1.96,2.16,4.44,3.25,7.43,3.25,2.75,0,5.12-.98,7.11-2.94,1.99-1.96,2.98-4.34,2.98-7.16V12.77s-2.75,2.57-2.75,2.57ZM22.1,27.4c-1.44,1.44-3.18,2.16-5.23,2.16s-3.83-.71-5.25-2.13c-1.42-1.42-2.13-3.17-2.13-5.25s.71-3.83,2.13-5.25,3.17-2.13,5.25-2.13,3.79.72,5.23,2.16c1.44,1.44,2.16,3.18,2.16,5.23,0,2.05-.72,3.79-2.16,5.23Z"/><circle class="cls-1" cx="8.58" cy="38.32" r="1.47"/><path class="cls-4" d="M43.47,29.11l-3.32-1.66c-.22-.11-.22-.43,0-.54l3.32-1.66c.2-.1.43.05.43.27h0c0,.11-.06.22-.17.27l-2.25,1.12c-.22.11-.22.43,0,.54l2.25,1.12c.1.05.17.15.17.27h0c0,.22-.23.37-.43.27Z"/><path class="cls-4" d="M46.88,24.29l-2.69,5.91c-.04.09-.14.15-.25.17h0c-.22.03-.39-.14-.31-.3l2.69-5.91c.04-.09.14-.15.25-.17h0c.22-.03.39.14.31.3Z"/><path class="cls-4" d="M47.03,25.25l3.32,1.66c.22.11.22.43,0,.54l-3.32,1.66c-.2.1-.43-.05-.43-.27h0c0-.11.06-.22.17-.27l2.25-1.12c.22-.11.22-.43,0-.54l-2.25-1.12c-.1-.05-.17-.15-.17-.27h0c0-.22.23-.37.43-.27Z"/><rect class="cls-4" x="37.43" y="25.97" width="2.43" height="2.43" transform="translate(-7.9 35.28) rotate(-45)"/><rect class="cls-4" x="44.04" y="25.97" width="2.43" height="2.43" transform="translate(-5.96 39.96) rotate(-45)"/><rect class="cls-4" x="50.64" y="25.97" width="2.43" height="2.43" transform="translate(-4.03 44.63) rotate(-45)"/><path class="cls-4" d="M35.13,24.47c6.74-.68,13.5-.69,20.24,0-6.74.69-13.5.68-20.24,0h0Z"/><path class="cls-4" d="M35.13,27.18c6.74-.68,13.5-.69,20.24,0-6.74.69-13.5.68-20.24,0h0Z"/><path class="cls-4" d="M35.13,29.89c6.74-.68,13.5-.69,20.24,0-6.74.69-13.5.68-20.24,0h0Z"/><circle class="cls-1" cx="34.87" cy="54.75" r=".95"/><circle class="cls-1" cx="32.04" cy="54.75" r=".95"/><circle class="cls-1" cx="29.22" cy="54.75" r=".95"/><polyline class="cls-2" points="32.23 12.3 45.25 12.3 47.14 11.05 53.12 11.05 54.95 12.3 58.27 12.3"/><polygon class="cls-3" points="38.52 39.4 40.52 42.85 36.53 42.85 38.52 39.4"/><polygon class="cls-3" points="43.52 41.13 46.98 39.14 46.98 43.12 43.52 41.13"/><polygon class="cls-3" points="51.98 42.85 49.98 39.4 53.97 39.4 51.98 42.85"/></g></svg>