<?xml version="1.0" encoding="UTF-8"?><svg id="Layer_2" xmlns="http://www.w3.org/2000/svg" viewBox="0 0 64 64"><defs><style>.cls-1,.cls-2,.cls-3{fill:#fff;}.cls-2,.cls-4{fill-rule:evenodd;}.cls-2,.cls-3{stroke:#07549b;stroke-miterlimit:10;stroke-width:.25px;}.cls-4,.cls-5{fill:#07549b;}</style></defs><g id="Layer_1-2"><rect class="cls-1" width="64" height="64" rx="12" ry="12"/><path class="cls-2" d="M27.43,34.68c-3.19,0-6.25-.7-8.69-1.98-1.09.17-2.21.26-3.33.26-7.66,0-13.66-3.89-13.66-8.86,0-1.59.64-3.14,1.82-4.47-.44-.89-.67-1.83-.67-2.78,0-4.97,6-8.86,13.66-8.86,2.82,0,5.57.56,7.85,1.58,2.27-1.02,5.02-1.58,7.85-1.58,2.98,0,5.84.61,8.17,1.72,2.33-1.12,5.2-1.72,8.17-1.72,7.66,0,13.66,3.89,13.66,8.86,0,1.27-.4,2.5-1.15,3.62.76,1.12,1.15,2.36,1.15,3.62,0,4.97-6,8.86-13.66,8.86-2.42,0-4.76-.4-6.82-1.15-.77.08-1.56.12-2.34.12-.66,0-1.31-.03-1.94-.08-2.56,1.81-6.19,2.84-10.07,2.84Z"/><path class="cls-4" d="M59.02,20.48c1.02,1.06,1.61,2.3,1.61,3.62,0,4-5.38,7.25-12.02,7.25-2.43,0-4.71-.43-6.6-1.19-.83.1-1.68.16-2.56.16-.83,0-1.63-.05-2.42-.14-2.19,1.76-5.68,2.9-9.6,2.9-3.28,0-6.22-.79-8.39-2.06-1.15.22-2.37.34-3.63.34-6.64,0-12.02-3.24-12.02-7.25,0-1.58.84-3.04,2.26-4.22-.71-.92-1.11-1.95-1.11-3.03,0-4,5.38-7.25,12.02-7.25,3,0,5.75.67,7.85,1.76,2.1-1.1,4.85-1.76,7.85-1.76,3.15,0,6.04.73,8.17,1.93,2.14-1.2,5.02-1.93,8.17-1.93,6.64,0,12.02,3.24,12.02,7.25,0,1.32-.58,2.56-1.61,3.62Z"/><rect class="cls-5" x="19.16" y="16.45" width="27.34" height="26.87"/><path class="cls-3" d="M47.13,43.94h-28.59V15.83h28.59v28.1ZM19.79,42.71h26.09v-25.65h-26.09v25.65Z"/><rect class="cls-5" x="32" y="43.94" width="1.67" height="4.03"/><rect class="cls-5" x="32.01" y="39.3" width="1.64" height="25.36" transform="translate(84.82 19.15) rotate(90)"/><path class="cls-1" d="M34.2,33.49h-6.36l-1.22,3.27h-1.48l5.1-13.57h1.58l5.08,13.57h-1.48l-1.22-3.27ZM33.77,32.35l-2.76-7.43-2.76,7.43h5.52Z"/><path class="cls-1" d="M40.54,23.01v13.75h-1.4v-13.75h1.4Z"/><rect class="cls-5" x="12.16" y="48.14" width="7.81" height="7.68"/><path class="cls-5" d="M20.15,56h-8.17v-8.03h8.17v8.03ZM12.34,55.65h7.46v-7.33h-7.46v7.33Z"/><rect class="cls-5" x="45.69" y="48.14" width="7.81" height="7.68"/><path class="cls-5" d="M53.68,56h-8.17v-8.03h8.17v8.03ZM45.87,55.65h7.46v-7.33h-7.46v7.33Z"/><rect class="cls-5" x="28.93" y="48.14" width="7.81" height="7.68"/><path class="cls-3" d="M36.92,56h-8.17v-8.03h8.17v8.03ZM29.11,55.65h7.46v-7.33h-7.46v7.33Z"/><ellipse class="cls-3" cx="16.07" cy="51.98" rx="1.29" ry="1.26"/><path class="cls-3" d="M51.7,52.05l-3.11,1.76s-.11,0-.11-.06v-3.53c0-.06.06-.09.11-.06l3.11,1.76s.05.1,0,.13Z"/><path class="cls-1" d="M34.46,48.86h-1.87c.25,0,.49.04.71.13h-.71c.53,0,1,.2,1.35.57l.52-.48v-.09h-.04l.04-.04v-.09Z"/><path class="cls-1" d="M33.94,49.77c-.38-.38-.83-.57-1.35-.57s-.95.18-1.32.54c-.37.36-.56.79-.56,1.3s.19.93.56,1.3c.37.36.81.55,1.32.55.56,0,1.02-.2,1.4-.61v.96c0,.41-.14.75-.42,1.01-.28.26-.62.4-1.01.4-.45,0-.8-.15-1.07-.46,0,.02,0,.04,0,.06,0,.15-.12.27-.28.27-.02,0-.04,0-.06,0,.37.4.84.6,1.41.6.52,0,.97-.18,1.34-.55.38-.36.56-.81.56-1.33v-3.94l-.52.48ZM33.57,52.02c-.27.27-.6.4-.99.4s-.72-.13-.99-.4-.4-.59-.4-.98.13-.71.4-.98.6-.4.99-.4.72.13.99.4c.27.27.41.59.41.97s-.14.7-.41.97Z"/><ellipse class="cls-1" cx="31.02" cy="54.04" rx=".28" ry=".27"/></g></svg>