<?xml version="1.0" encoding="UTF-8"?><svg id="Layer_2" xmlns="http://www.w3.org/2000/svg" viewBox="0 0 64 64"><defs><style>.cls-1{fill:#9b4f07;}.cls-2{fill:#fff;}.cls-3{fill:#07549b;}</style></defs><g id="Layer_1-2"><rect class="cls-2" x="0" width="64" height="64" rx="12" ry="12"/><path class="cls-3" d="M61.53,27.86c6.26,5.34-2.1,9.7-7.22,12.75-8.61,5.14-17.45,9.94-26.16,14.9-2.74.53-4.79.23-6.58-1.98-.71-.88-1.15-2.6-2.28-2.98-1.85-.61-8.58.69-9.17-1.02-1.64-4.77,9.23-.56,10.09-3.63,1.14-4.1-7.5-.96-7.85-3.56-.48-3.64,5.55-1.27,7.34-2.42.67-.43.67-2.04.14-2.58-.94-.93-8.81-.09-10.86-.49-1.37-.26-1.57-2.05-.73-2.88.77-.76,8.1-.11,9.87-.31,2.84-.33,2.88-3.19.3-3.6-1.79-.29-4.93.93-4.78-1.83.14-2.6,4.52-.8,6.05-1.78.68-.43.67-2.05.14-2.58-1.05-1.04-7.66.07-9.54-.48-1.21-.35-1.61-2.03-.73-2.89,1.09-1.08,8.48.59,10.21-.96.73-.65.67-1.66,0-2.34-1.66-1.66-7.09.62-7.41-1.81-.48-3.64,5.25-1.39,7.23-2.28,1.15-.52,1.91-3.57,4.42-4.45,2.78-.97,4.42-.04,6.76,1.16,10.34,5.31,20.64,12.06,30.75,18.02Z"/><path class="cls-1" d="M4.66,26.76h6.24c1.07,0,1.07,3.28,0,3.28h-5.91c-1.33,0-1.66-2.64-.33-3.28Z"/><path class="cls-3" d="M4.4,40.29c1.77-.38,6.84-.61,5.95,2.32-.46,1.52-4.77,1.49-5.95,1.15-1.45-.42-1.96-3.04,0-3.47Z"/><path class="cls-3" d="M6.3,20.19c1.65.27,1.3,3.28,0,3.28H1.05c-1.07,0-1.07-3.28,0-3.28,1.51,0,3.9-.22,5.25,0Z"/><path class="cls-3" d="M10,16.5c-.78.79-4.3.7-4.94-.67-1.35-2.9,4.68-3.51,5.29-1.32.15.54.03,1.6-.35,1.98Z"/><path class="cls-3" d="M2.43,33.4c4.13-1.21,5,3.32,1.57,3.56-3.07.21-3.62-2.96-1.57-3.56Z"/><path class="cls-1" d="M8.03,50c-1.75,1.73-4.15-1.21-2.41-2.58,1.88-1.49,3.76,1.24,2.41,2.58Z"/><path class="cls-2" d="M32.66,19.93s.07,0,.11,0h-.11s0,0,0,0Z"/><path class="cls-2" d="M40.48,18.48h-7.71c1.03,0,2.01.18,2.91.55h-2.91c2.17,0,4.11.82,5.57,2.39l2.14-2v-.39s-.17,0-.17,0l.17-.15v-.39Z"/><path class="cls-2" d="M38.33,22.32c-1.55-1.59-3.4-2.39-5.57-2.39-2.1,0-3.91.75-5.43,2.25-1.52,1.5-2.29,3.32-2.29,5.46s.76,3.91,2.29,5.43c1.52,1.52,3.33,2.29,5.43,2.29,2.29,0,4.2-.86,5.75-2.57v4.03c0,1.71-.58,3.12-1.73,4.23-1.16,1.11-2.54,1.66-4.16,1.66-1.83,0-3.3-.64-4.41-1.92.02.08.02.15.02.23,0,.63-.51,1.15-1.15,1.15-.09,0-.17-.01-.25-.03,1.53,1.68,3.46,2.53,5.79,2.53,2.14,0,3.99-.76,5.54-2.29,1.55-1.52,2.32-3.38,2.32-5.57v-16.5s-2.14,2-2.14,2ZM36.83,31.71c-1.12,1.12-2.48,1.68-4.07,1.68s-2.98-.55-4.09-1.66-1.66-2.47-1.66-4.09.55-2.98,1.66-4.09,2.47-1.66,4.09-1.66,2.95.56,4.07,1.68c1.12,1.12,1.68,2.48,1.68,4.07s-.56,2.95-1.68,4.07Z"/><circle class="cls-2" cx="26.31" cy="40.21" r="1.15"/></g></svg>