<?xml version="1.0" encoding="UTF-8"?><svg id="Layer_2" xmlns="http://www.w3.org/2000/svg" viewBox="0 0 64 64"><defs><style>.cls-1{stroke:#fff;stroke-miterlimit:10;stroke-width:.5px;}.cls-1,.cls-2{fill:#fff;}.cls-3{fill:#07549b;}</style></defs><g id="Layer_1-2"><rect class="cls-2" width="64" height="64" rx="12" ry="12"/><path class="cls-3" d="M53.13,40.97v19.72h-28.64v-24.88c1.34.59,4.76,5.16,5.87,5.16h22.77Z"/><path class="cls-3" d="M22.14,60.69h-11.27v-19.72c5.7,1.09,7.59-1.79,11.27-5.16v24.88Z"/><path class="cls-3" d="M50.2,3.99c.83.83.79,3.25-.46,3.8-2.44,1.07-5.45-1.52-8.35-.62,4.01,3.49,4.98,6.15,6.7,10.91.27.74,1.12,1.08,1.29,2.02.75,4.17-5.42,4.26-4.7.01.38-2.2,1.24-1.49-.11-4.62-4.41-10.2-18.81-11.29-24.39-1.59-.52.9-1.65,3.05-1.73,3.96-.1,1.04.72,1.44.86,2.26.79,4.46-5.98,4.01-4.6-.4.18-.59.96-.97,1.19-1.63,1.66-4.76,2.49-7.55,6.7-10.91-1.28.13-2.79-.2-4.02-.03-1.68.24-5.2,2.68-5.42-1.15-.25-4.39,3.83-1.83,5.88-1.61,5.01.55,21.06.67,25.88,0,1.47-.21,3.62-2,5.26-.38Z"/><path class="cls-3" d="M60.17,38.15h-29.81c-.43,0-5.56-5.39-6.11-6.1-.36-.47-.91-.59-.7-1.41h29.34c.59,0,5.92,5.25,6.58,6.1.36.47.91.59.7,1.41Z"/><path class="cls-3" d="M23.08,30.64c-.92.93-6.75,7.51-7.28,7.51H3.83c-.2-.82.34-.94.7-1.41.54-.71,5.68-6.1,6.11-6.1h12.44Z"/><path class="cls-3" d="M35.73,16.57l1.9,5.61c-3.78,1.3-7.5,1.29-11.27,0,.3-.79,1.7-5.39,1.92-5.59.28-.25,6.14.85,7.45-.02Z"/><path class="cls-3" d="M25.9,28.29c-.61-5.11,1.09-2.87,4.44-2.79,2.65.06,5.16-.17,7.77-.49v3.29s-12.21,0-12.21,0Z"/><path class="cls-3" d="M32.46,8.57c.2.22,1.39,4.82,1.88,5.63h-4.69c-.22-.19,1.51-4.35,1.83-4.96.18-.35.18-1.52.98-.67Z"/><path class="cls-2" d="M36.93,42.88h-4.99c.67,0,1.3.12,1.88.35h-1.88c1.4,0,2.66.53,3.6,1.55l1.39-1.29v-.25h-.11l.11-.1v-.25Z"/><path class="cls-2" d="M35.54,45.36c-1-1.03-2.2-1.55-3.6-1.55s-2.53.49-3.51,1.46c-.99.97-1.48,2.15-1.48,3.54s.49,2.53,1.48,3.51c.99.99,2.16,1.48,3.51,1.48,1.48,0,2.72-.55,3.72-1.66v2.61c0,1.11-.37,2.02-1.12,2.74-.75.72-1.64,1.07-2.69,1.07-1.19,0-2.14-.42-2.86-1.24.01.05.02.1.02.15,0,.41-.33.74-.74.74-.06,0-.11,0-.16-.02.99,1.09,2.24,1.64,3.75,1.64,1.39,0,2.58-.49,3.58-1.48,1-.99,1.5-2.19,1.5-3.61v-10.68l-1.39,1.29ZM34.57,51.44c-.72.72-1.6,1.09-2.63,1.09s-1.93-.36-2.65-1.07c-.72-.72-1.07-1.6-1.07-2.65s.36-1.93,1.07-2.65,1.6-1.07,2.65-1.07,1.91.36,2.63,1.09c.72.72,1.09,1.6,1.09,2.63s-.36,1.91-1.09,2.63Z"/><circle class="cls-2" cx="27.76" cy="56.94" r=".74"/><circle class="cls-2" cx="15.02" cy="5.6" r=".74"/><circle class="cls-2" cx="48.57" cy="5.6" r=".74"/><rect class="cls-2" x="44.09" y="42.88" width="7.46" height="1.3"/><rect class="cls-2" x="45.93" y="46.79" width="5.62" height=".98"/><rect class="cls-2" x="29.13" y="26.46" width="5.62" height=".98"/><rect class="cls-1" x="13.7" y="42.88" width="5.62" height="16.95" rx="2.7" ry="2.7"/><rect class="cls-2" x="45.93" y="50.7" width="5.62" height=".98"/><rect class="cls-2" x="45.93" y="54.61" width="5.62" height=".98"/><rect class="cls-2" x="44.09" y="58.53" width="7.46" height="1.3"/><circle class="cls-3" cx="16.51" cy="45.08" r=".74"/><circle class="cls-3" cx="16.51" cy="51.38" r=".74"/><circle class="cls-3" cx="16.51" cy="57.68" r=".74"/></g></svg>