<?xml version="1.0" encoding="UTF-8"?><svg id="Layer_2" xmlns="http://www.w3.org/2000/svg" viewBox="0 0 64 64"><defs><style>.cls-1{fill:#fff;}.cls-2{fill:#07549b;}</style></defs><g id="Layer_1-2"><rect class="cls-1" width="64" height="64" rx="12" ry="12"/><path class="cls-2" d="M15.65,44.43l.62-.53c.73-.63,1.44-1.31,2.12-1.97,2.58-2.48,5.25-5.05,9.56-5.19h.15s.14.04.14.04c.76.26,1.81.38,3.31.38.88,0,1.82-.04,2.73-.08.9-.04,1.82-.08,2.68-.08,1.68,0,2.8.16,3.64.52,1.24.53,1.96,1.51,2.05,2.73,1.59-1.63,8.45-8.39,9.68-8.78.52-.17,1.04-.25,1.53-.25,1.35,0,2.47.63,3.08,1.73.68,1.24.55,2.82-.34,4.23l-.07.11-.1.08c-2.14,1.74-4.2,3.78-6.19,5.76-1.74,1.72-3.53,3.51-5.38,5.08-4.3,3.66-7.82,3.87-11.9,4.11-1.74.1-3.55.21-5.59.59-.37.07-.6.31-.98.74-.19.21-.39.43-.63.64l-.58.5-9.5-10.36Z"/><path class="cls-2" d="M30.54,44.64h8.46c2.14,0,2.91-2.45,3.93-3.55,1.19-1.29,8.67-8.56,9.63-8.87,3.2-1.03,5.06,1.84,3.35,4.53-4.05,3.28-7.66,7.5-11.59,10.85-5.89,5.02-10.25,3.23-17.12,4.53-.94.18-1.33,1-1.98,1.56l-8.43-9.19c3.49-3.01,6.09-6.8,11.19-6.97,3.24,1.11,9.6-.44,12.3.72,3.21,1.37.78,5.61-.88,5.61h-8.27c-.07,0-.62.53-.59.79Z"/><path class="cls-1" d="M19.36,62.96c-.68,0-1.32-.25-1.84-.73l-.1-.1-.08-.12c-.58-.84-2.38-2.58-4.12-4.27-3.39-3.28-5.48-5.37-5.9-6.7-.14-.44-.29-.91-.23-1.5.13-1.22,5.36-5.93,6.58-5.93,1.07,0,2.24.99,8.4,7.97,1.4,1.59,2.73,3.09,3.21,3.53l.17.15.11.2c.27.52.25,1.14-.05,1.84-.79,1.83-4.34,5.26-5.29,5.52-.3.08-.59.13-.88.13Z"/><path class="cls-2" d="M13.43,44.1c1.32,0,10.03,10.64,11.76,12.2.63,1.23-4.42,5.92-4.97,6.08-.62.17-1.16.1-1.65-.35-1.67-2.43-10.1-9.48-10.76-11.61-.11-.36-.23-.69-.19-1.08.06-.55,5.14-5.24,5.82-5.24ZM19.1,56.93c-1.68.5-1.45,2.65.36,2.94,2.88.45,2.68-3.84-.36-2.94Z"/><circle class="cls-2" cx="41.08" cy="27.5" r="8.43"/><circle class="cls-2" cx="30.66" cy="13.52" r="6.28"/><circle class="cls-2" cx="44.96" cy="6.47" r="6.28"/><circle class="cls-2" cx="20.94" cy="27.5" r="8.53" transform="translate(-8.93 10.1) rotate(-22.5)"/><circle class="cls-2" cx="20.94" cy="27.5" r="8.43"/><circle class="cls-2" cx="14.61" cy="10.06" r="7"/><path class="cls-1" d="M39.91,28.11c-.06-.06-1.12.06-1.18,0s-.06-1.71,0-1.77,1.12.06,1.18,0c.12-.12-.25-2.26.81-3.1.51-.41,2.53-.74,2.71-.2.06.19.06.94,0,1.14-.15.47-1.2.05-1.56.42-.31.31-.14,1.3-.18,1.73h1.77c.07.07-.09,1.7-.16,1.76-.08.08-1.34-.04-1.61,0v4.13c-.31-.03-1.77.13-1.77-.22,0-.53.14-3.77,0-3.91Z"/><path class="cls-1" d="M32.75,13.58l-4.1,2.37s-.11,0-.11-.06v-4.74c0-.06.06-.09.11-.06l4.1,2.37s.05.1,0,.12Z"/><path class="cls-1" d="M19.44,24.11c.84-.1,2.66-.11,3.45.09.54.14.91.36,1.16.87.44.88.44,3.98,0,4.86-.15.3-.39.54-.69.69-.87.44-3.98.44-4.86,0-.3-.15-.54-.39-.69-.69-.41-.82-.41-3.58-.16-4.46s.89-1.25,1.78-1.36ZM19.34,24.75c-.41.06-.82.26-1.01.65-.24.5-.23,2.88-.16,3.53.05.47.22.96.67,1.17.5.24,2.88.23,3.53.16.47-.05.96-.22,1.17-.67.24-.5.23-2.88.16-3.53-.08-.8-.45-1.23-1.26-1.33-.7-.08-2.42-.09-3.1.01Z"/><path class="cls-1" d="M20.63,25.77c2.35-.38,2.81,3.2.52,3.48-2.25.27-2.71-3.12-.52-3.48ZM20.63,26.41c-1.11.23-1.08,2.02.08,2.19,1.82.27,1.76-2.56-.08-2.19Z"/><path class="cls-1" d="M22.43,26c-.37-.38.14-.99.59-.63s-.21,1.01-.59.63Z"/><path class="cls-1" d="M14.57,5.94s.03,0,.04,0h-.04Z"/><path class="cls-1" d="M17.33,5.43h-2.73c.37,0,.71.07,1.03.19h-1.03c.77,0,1.45.29,1.97.85l.76-.71v-.14h-.06l.06-.05v-.14Z"/><path class="cls-1" d="M16.58,6.78c-.55-.56-1.2-.85-1.97-.85s-1.38.27-1.92.8c-.54.53-.81,1.17-.81,1.93s.27,1.38.81,1.92c.54.54,1.18.81,1.92.81.81,0,1.49-.3,2.03-.91v1.43c0,.61-.2,1.11-.61,1.5-.41.39-.9.59-1.47.59-.65,0-1.17-.23-1.56-.68,0,.03,0,.05,0,.08,0,.22-.18.41-.41.41-.03,0-.06,0-.09-.01.54.6,1.22.89,2.05.89.76,0,1.41-.27,1.96-.81.55-.54.82-1.2.82-1.97v-5.84l-.76.71ZM16.05,10.11c-.4.4-.88.59-1.44.59s-1.05-.2-1.45-.59-.59-.87-.59-1.45.2-1.05.59-1.45.87-.59,1.45-.59,1.04.2,1.44.59c.4.4.59.88.59,1.44s-.2,1.04-.59,1.44Z"/><circle class="cls-1" cx="12.32" cy="13.11" r=".41"/></g></svg>