<?xml version="1.0" encoding="UTF-8"?><svg id="Layer_2" xmlns="http://www.w3.org/2000/svg" viewBox="0 0 64 64"><defs><style>.cls-1{fill:#fff;}.cls-2{fill:#07549b;}</style></defs><g id="Layer_1-2"><rect class="cls-1" width="64" height="64" rx="12" ry="12"/><path class="cls-2" d="M21.01,11.01c2.24-.2,4.3,1.35,5.8,2.83,2.39,2.37,11.2,12.63,12.27,15.25,1.15,2.83.91,4.2-.52,6.85s-6.08,7.88-8.32,10.36c-3.12,3.47-6.78,9.02-12.03,5.62-2.41-1.56-13-14.09-14.21-16.75-1.39-3.06-1.22-3.96.34-6.91s10.77-13.73,13.35-15.65c.92-.69,2.17-1.5,3.32-1.6Z"/><path class="cls-2" d="M44.6,10.97c1.18-.18,2.06.61,2.86,1.38,2.34,2.25,11.37,13.7,12.6,16.4,1.12,2.47,1.18,3.71.16,6.23s-10.57,14.61-12.76,16.73c-2.48,2.39-5.22,1.49-4.98-1.99,1.48-3.42,13.19-15.1,12.96-17.86-.3-3.61-11.95-13.83-13.13-18.26-.01-1.13,1.15-2.45,2.29-2.63Z"/><path class="cls-2" d="M34.28,10.97c1.1-.17,1.85.45,2.59,1.15,1.67,1.58,12.36,15.44,12.9,17.09s.6,3.58.15,5.29c-.42,1.58-11.35,15.83-13.04,17.43-2.73,2.59-5.99.2-4.54-3.07,2.85-4.69,9.42-10.13,11.75-14.79,1.62-3.24-.26-4.42-2.1-6.91-2.14-2.92-8.51-9.38-9.65-11.97-.83-1.88-.22-3.89,1.95-4.22Z"/><path class="cls-1" d="M8.98,28.7v4.66c0,.65.16,1.14.48,1.46.32.32.77.48,1.34.48s1.01-.16,1.33-.48c.32-.32.48-.8.48-1.46v-4.66h.96v4.65c0,.61-.12,1.13-.37,1.55-.25.42-.58.73-1,.93-.42.2-.89.31-1.41.31s-.99-.1-1.41-.31c-.42-.2-.75-.52-.99-.93-.24-.42-.36-.93-.36-1.55v-4.65h.96Z"/><path class="cls-1" d="M18.18,32.38l2.26,3.68h-1.09l-1.76-2.87-1.68,2.87h-1.07l2.25-3.68-2.26-3.69h1.08l1.77,2.88,1.69-2.88h1.08l-2.27,3.69Z"/><path class="cls-1" d="M25.32,26.11l-2.89,11.75h-.95l2.88-11.75h.96Z"/><path class="cls-1" d="M27.69,28.7v4.66c0,.65.16,1.14.48,1.46.32.32.77.48,1.34.48s1.01-.16,1.33-.48c.32-.32.48-.8.48-1.46v-4.66h.96v4.65c0,.61-.12,1.13-.37,1.55-.25.42-.58.73-1,.93-.42.2-.89.31-1.41.31s-.99-.1-1.41-.31c-.42-.2-.75-.52-.99-.93-.24-.42-.36-.93-.36-1.55v-4.65h.96Z"/><path class="cls-1" d="M34.85,28.7v7.36h-.96v-7.36h.96Z"/></g></svg>