<?xml version="1.0" encoding="UTF-8"?><svg id="Layer_2" xmlns="http://www.w3.org/2000/svg" viewBox="0 0 64 64"><defs><style>.cls-1{fill:#fff;}.cls-2,.cls-3{fill:#07549b;}.cls-3{stroke:#07549b;stroke-miterlimit:10;}</style></defs><g id="Layer_1-2"><rect class="cls-1" width="64" height="64" rx="12" ry="12"/><path class="cls-3" d="M59.83,47.62c-.36,0-.71-.1-1.02-.3l-9.8-6.42c-.41-.27-.69-.68-.8-1.16l-.1-.45c-.03-.14-.05-.28-.04-.42l.1-14.22c0-.63.32-1.21.84-1.55l9.8-6.42c.31-.2.67-.3,1.02-.3.3,0,.61.07.89.22.6.33.98.96.98,1.64v27.51c0,.69-.38,1.32-.98,1.64-.28.15-.58.22-.89.22Z"/><path class="cls-3" d="M20.01,49.71c-9.76,0-17.71-7.94-17.71-17.71S10.24,14.29,20.01,14.29h11.84c9.76,0,17.71,7.94,17.71,17.71s-7.94,17.71-17.71,17.71h-11.84Z"/><path class="cls-2" d="M31.85,16.16h-11.84c-8.75,0-15.84,7.09-15.84,15.84h0c0,8.75,7.09,15.84,15.84,15.84h11.84c8.75,0,15.84-7.09,15.84-15.84h0c0-8.75-7.09-15.84-15.84-15.84Z"/><path class="cls-1" d="M25.85,23.47s.05,0,.08,0h-.08Z"/><path class="cls-1" d="M31.7,22.38h-5.77c.77,0,1.5.14,2.18.41h-2.18c1.62,0,3.07.62,4.17,1.79l1.6-1.5v-.29h-.12l.12-.12v-.29Z"/><path class="cls-1" d="M30.1,25.25c-1.16-1.19-2.55-1.79-4.17-1.79s-2.92.56-4.06,1.68c-1.14,1.12-1.71,2.48-1.71,4.09s.57,2.92,1.71,4.06c1.14,1.14,2.49,1.71,4.06,1.71,1.71,0,3.14-.64,4.3-1.92v3.02c0,1.28-.43,2.34-1.3,3.17-.86.83-1.9,1.24-3.11,1.24-1.37,0-2.47-.48-3.3-1.43.01.06.02.11.02.17,0,.47-.38.86-.86.86-.06,0-.13,0-.19-.02,1.14,1.26,2.59,1.89,4.33,1.89,1.6,0,2.98-.57,4.14-1.71,1.16-1.14,1.74-2.53,1.74-4.17v-12.34l-1.6,1.5ZM28.97,32.28c-.84.84-1.85,1.26-3.05,1.26s-2.23-.41-3.06-1.24-1.24-1.85-1.24-3.06.41-2.23,1.24-3.06,1.85-1.24,3.06-1.24,2.21.42,3.05,1.26c.84.84,1.26,1.85,1.26,3.05s-.42,2.21-1.26,3.05Z"/><circle class="cls-1" cx="21.1" cy="38.64" r=".86"/><polygon class="cls-1" points="50.03 24.66 49.93 38.89 50.03 39.34 59.83 45.76 59.83 18.24 50.03 24.66"/></g></svg>