<?xml version="1.0" encoding="UTF-8"?><svg id="Layer_2" xmlns="http://www.w3.org/2000/svg" viewBox="0 0 64 64"><defs><style>.cls-1{fill:#9b4f07;}.cls-2{fill:#fff;}.cls-3{fill:#fbfbfb;}.cls-4{fill:#f8ab64;}.cls-5{fill-rule:evenodd;}.cls-5,.cls-6{fill:#07549b;}.cls-7{fill:#d5e1eb;}</style></defs><g id="Layer_1-2"><rect class="cls-2" width="64" height="64" rx="12" ry="12"/><path class="cls-7" d="M36.78,8.05c0,.21.13.75-.05.89l-1.58,1.32,8.08,9.96,1.48-1.23c.29-.24.85-.15,1.16,0l3.83,4.61c.1.34.08.9-.21,1.14l-1.48,1.23,8.3,9.78,1.58-1.32c.18-.15.68.09.89.12l3.83,4.61c.13.48.17.75-.2,1.14-1.22,1.28-3.12,2.37-4.4,3.65-.46.32-1,.1-1.37-.26-.87-.84-2.67-3.02-3.35-4.03-.3-.44-.47-1.13,0-1.53l1.4-1.17-4.84-5.83.46,2.4c1,6.89-1.52,14.08-6.75,18.75.56.88,2.09,1.73,1.04,2.79-.95.96-3.14,2.77-4.26,3.53-.53.36-1,.23-1.44-.21-.87-.85-2.66-3.02-3.35-4.03-.48-.71-.37-1.13.22-1.71.89-.88,2.94-2.61,3.96-3.27.33-.21,1.04-.45,1.34-.09l1.29,1.55c6.42-5.86,8.17-15.83,3.9-23.44l-1.19.99c-.08.07-.6.17-.74.13-.29-.07-.6-.39-.81-.6-.88-.92-2.54-2.85-3.21-3.89-.11-.17-.27-.5-.28-.69,0-.15.18-.64.26-.71l1.19-.99c-6.69-5.6-16.81-5.71-23.75-.47l1.29,1.55c.32.39-.11,1.07-.39,1.36-.87.88-2.94,2.6-3.96,3.29-.65.44-1.09.4-1.65-.15-.86-.85-2.69-3.03-3.35-4.03-.27-.42-.31-.78-.18-1.25l4.83-4.01c1.12-.1,1.54,1.14,2.23,1.8,5.46-4.19,12.85-5.41,19.35-3.28l2.6.99-4.84-5.83-1.4,1.17c-.52.43-1.17.06-1.56-.34-.84-.86-2.72-3.06-3.34-4.04-.24-.39-.25-.75-.14-1.18l4.83-4.01.79.07,3.95,4.75ZM34.57,8.31l-2.33-2.81-2.88,2.39,2.33,2.81,2.88-2.39ZM47.54,23.94l-2.39-2.88-2.77,2.3s-.02.19-.02.2l2.21,2.66s.19.02.2.02l2.77-2.3ZM60.46,39.49l-2.33-2.81-2.88,2.39,2.33,2.81,2.88-2.39ZM16.85,23.02l-2.33-2.81-2.88,2.39,2.33,2.81,2.88-2.39ZM42.74,54.2l-2.33-2.81-2.88,2.39,2.33,2.81,2.88-2.39Z"/><polygon class="cls-3" points="32.84 3.29 32.05 3.22 32.48 2.86 32.84 3.29"/><path class="cls-7" d="M25,46.91l.87,1.04c.09.11.32.97.34,1.16.15,1.48-1.02,2.96-2.52,3.08-.42.04-1.04-.21-1.31-.19-.65.04-5.27,4.56-6.32,5.08-.61.29-1.34-.26-1.3-.92,0-.08.15-.5.17-.52l5.94-4.93-6.94-8.35-5.94,4.93s-.46.09-.54.08c-.66-.08-1.06-.9-.67-1.45l6.06-5.09c.15-.18.05-1.14.15-1.51.4-1.45,2.07-2.33,3.49-1.91.19.05.99.43,1.08.54l.87,1.04c1.22-1.66,2.12-3.5,2.54-5.52.19-.92,0-2.49.94-2.87.41-.17,2.2-.49,2.71-.54.65-.07,1.45.11,1.38.95-.1,1.23-2.2.88-2.97,1.38-.3,2.93-1.48,5.78-3.39,8.03l4.18,5.04c2.57-1.46,5.59-2.09,8.52-1.85l4.89-12.32-5.26,4.37c1.4,3.13-2.75,5.9-5.14,3.48-2.69-2.71.74-7.01,3.95-4.92l5.26-4.37-4.42.76c-1.15-.08-1.26-1.52-.16-1.84,2.54-.3,5.27-1.24,7.78-1.5.99-.1,1.46.58,1.08,1.48l-6.5,16.42c-.53.64-2.08.25-2.92.26-2.06.04-4.04.59-5.89,1.48ZM29.92,35.86c-1.26-1.13-3.1.83-1.65,2.04,1.18.99,2.97-.86,1.65-2.04ZM16.29,39.38c-.92-.65-1.95.37-1.32,1.31l7.72,9.29c.91.86,2.11-.19,1.44-1.2l-7.84-9.4Z"/><path class="cls-1" d="M28.84,29.58c.92.79-.24,2.19-1.14,1.5-1.07-.82.23-2.27,1.14-1.5Z"/><path class="cls-6" d="M47.54,23.94l-2.77,2.3s-.19-.01-.2-.02l-2.21-2.66s.01-.19.02-.2l2.77-2.3,2.39,2.88Z"/><rect class="cls-7" x="30.09" y="6.27" width="3.74" height="3.65" transform="translate(2.2 22.28) rotate(-39.7)"/><rect class="cls-7" x="55.98" y="37.46" width="3.74" height="3.65" transform="translate(-11.75 46.01) rotate(-39.7)"/><rect class="cls-7" x="12.37" y="20.98" width="3.74" height="3.65" transform="translate(-11.28 14.36) rotate(-39.7)"/><rect class="cls-7" x="38.26" y="52.17" width="3.74" height="3.65" transform="translate(-25.23 38.08) rotate(-39.7)"/><path class="cls-7" d="M16.29,39.38l7.84,9.4c.67,1.01-.53,2.06-1.44,1.2l-7.72-9.29c-.63-.94.4-1.96,1.32-1.31Z"/><path class="cls-3" d="M29.92,35.86c1.32,1.19-.48,3.03-1.65,2.04-1.44-1.22.4-3.18,1.65-2.04Z"/><path class="cls-5" d="M13.82,43l6.42,7.74-12.53,10.4-6.42-7.74,12.53-10.4h0Z"/><path class="cls-4" d="M15.46,48.1s.03.03.04.04l-.04-.04h0Z"/><path class="cls-2" d="M18.74,50.83l-2.64-3.18c.35.43.61.89.77,1.39l-1-1.2c.74.89,1.07,1.98.92,3.12l1.56.2.16-.13-.06-.07.12.02.16-.13Z"/><path class="cls-2" d="M16.42,51.26c.13-1.18-.18-2.22-.92-3.12s-1.65-1.35-2.79-1.47c-1.14-.11-2.15.19-3.04.93s-1.35,1.65-1.46,2.8c-.11,1.15.2,2.16.92,3.02.78.94,1.79,1.44,3.03,1.49l-1.66,1.38c-.71.59-1.49.83-2.34.74-.85-.1-1.56-.48-2.11-1.15-.63-.76-.87-1.58-.72-2.48-.03.03-.06.06-.09.09-.26.22-.65.18-.87-.08-.03-.04-.05-.07-.07-.11-.17,1.21.14,2.29.94,3.25.73.88,1.68,1.38,2.84,1.5,1.16.12,2.19-.2,3.09-.95l6.81-5.65-1.56-.2ZM12.04,53.86c-.85-.08-1.54-.45-2.09-1.1s-.79-1.42-.72-2.26.45-1.53,1.12-2.09,1.42-.79,2.26-.72,1.53.45,2.09,1.12.78,1.41.7,2.25c-.08.84-.45,1.54-1.1,2.09s-1.41.78-2.25.7Z"/><circle class="cls-2" cx="4.92" cy="52.42" r=".62"/></g></svg>