<?xml version="1.0" encoding="UTF-8"?><svg id="Layer_2" xmlns="http://www.w3.org/2000/svg" viewBox="0 0 64 64"><defs><style>.cls-1{fill:#d5e1eb;}.cls-2{fill:#07549b;}.cls-3{fill:#8c6239;}</style></defs><g id="Layer_1-2"><rect class="cls-1" width="64" height="64" rx="12" ry="12"/><path class="cls-2" d="M31.83,13.25c.06,0,.11,0,.17,0h-.17Z"/><path class="cls-3" d="M44.41,10.92h-12.41c1.66,0,3.23.3,4.68.88h-4.68c3.49,0,6.61,1.33,8.97,3.85l3.45-3.22v-.63h-.27l.27-.25v-.63Z"/><path class="cls-2" d="M40.97,17.1c-2.49-2.57-5.48-3.85-8.97-3.85s-6.29,1.21-8.74,3.62c-2.45,2.41-3.68,5.35-3.68,8.79s1.23,6.29,3.68,8.74c2.45,2.45,5.36,3.68,8.74,3.68,3.68,0,6.76-1.38,9.25-4.14v6.49c0,2.76-.93,5.03-2.79,6.81-1.86,1.78-4.09,2.67-6.7,2.67-2.95,0-5.32-1.04-7.11-3.08.03.12.04.25.04.38,0,1.02-.83,1.85-1.85,1.85-.14,0-.27-.02-.4-.05,2.46,2.71,5.57,4.07,9.32,4.07,3.45,0,6.42-1.23,8.91-3.68,2.49-2.45,3.74-5.44,3.74-8.97V13.88l-3.45,3.22ZM38.55,32.21c-1.8,1.8-3.99,2.7-6.55,2.7s-4.8-.89-6.58-2.67-2.67-3.98-2.67-6.58.89-4.8,2.67-6.58,3.98-2.67,6.58-2.67,4.75.9,6.55,2.7c1.8,1.8,2.7,3.99,2.7,6.55s-.9,4.75-2.7,6.55Z"/><circle class="cls-3" cx="21.61" cy="45.89" r="1.85"/></g></svg>